<?xml version="1.0" encoding="UTF-8"?>
<svg id="Layer_1" data-name="Layer 1" xmlns="http://www.w3.org/2000/svg" viewBox="0 0 960 960">
  <defs>
    <style>
      .cls-1 {
        fill: #017afe;
      }

      .cls-1, .cls-2 {
        stroke-width: 0px;
      }

      .cls-2 {
        fill: #fff;
      }
    </style>
  </defs>
  <path class="cls-2" d="M796.09,727.76c-18.54-18.75-37.17-37.41-55.81-56.06-4.74-4.75-9.49-9.5-14.23-14.24-3.27-3.27-6.66-6.42-10.17-9.41-.31-.27-.6-.52-.86-.79-2.75-2.75-2.61-5.43-.4-9.23,8.36-14.33,16.94-28.61,24.15-43.53,10.57-21.88,16.96-45.16,21.05-69.19,4.72-27.81,4.95-55.74,1.6-83.49-3.55-29.46-11.88-57.86-24.59-84.86-15.87-33.7-37.26-63.46-64.47-88.76-24.66-22.95-52.3-41.81-83.84-53.99-17.66-6.83-35.77-13.26-54.25-17.01-26.17-5.31-52.76-9.31-79.72-4.64-15.42,2.67-31.2,3.65-46.34,7.36-2.8.69-5.6,1.42-8.39,2.21-12.46,3.49-24.74,7.92-36.58,13.04-17.53,7.56-34,16.71-49.37,27.44-16.25,11.3-31.29,24.36-45.07,39.13-9.04,9.7-17.31,19.93-24.85,30.68-7.81,11.09-14.84,22.73-21.19,34.88-15.58,29.87-24.94,61.55-29.49,94.75-2.52,18.34-4.3,36.79-2.01,55.29,3.04,24.59,6.91,49.06,14.97,72.6,10.37,30.28,24.99,58.37,44.65,83.74,22.23,28.67,48.77,52.49,79.91,71.09,21.47,12.83,44.2,22.7,68.35,29.53,31.41,8.86,63.34,13.07,95.83,10.73,23.04-1.68,45.62-5.73,67.57-12.68,6.56-2.07,13.06-4.39,19.5-6.99,19.46-7.84,37.86-17.49,55.23-29.18,2.47-1.67,4.3-1.87,6.19-.71.63.38,1.27.92,1.94,1.6,8.75,8.89,17.53,17.76,26.32,26.62,9.95,10.04,19.93,20.07,29.93,30.08,4.54,4.53,9.26,9.17,14.11,13.91,1.21,1.18,2.43,2.37,3.65,3.55,3.67,3.58,7.39,7.2,11.13,10.85,13.45-12.05,25.8-25.27,38.39-38.33,10.74-11.14,21.39-22.35,31.71-33.84-1.4.38-2.8-.37-4.57-2.14ZM286.11,425.91c-11.2.5-19.19-7.68-19.24-19.44-.68-9.79,5.41-17.09,9.59-24.95,12.21-23,27.9-43.51,46.48-61.68,14.55-14.23,30.41-26.92,48.02-37.3,10.61-6.25,22.16-4.48,27.51,4.29,6.26,10.22,3.72,22.37-6.84,29.01-18.08,11.37-34.79,24.34-49.42,39.95-15.78,16.85-28.09,36.05-38.74,56.44-3.68,7.05-8.4,13.27-17.36,13.67ZM615.06,424.72c-5.96,24.45-14.44,48.04-25.11,70.88-14.75,31.58-33.99,60.03-57.97,85.32-30.03,31.64-65.38,55.74-104.83,73.97-3.31,1.52-6.99,2.51-10.6,3.04-4.38.63-8.85.52-14.62.8-18.46-1.26-37.45-4.89-53.9-16.96-13.67-10.04-21.51-23.61-23.74-40.3-.96-7.12,1.14-13.92,6.68-18.62,15.06-12.78,30.43-25.22,45.75-37.7,2.85-2.32,5.91-4.48,9.13-6.25,9.72-5.35,16.79-4.52,25.44,2.53,5,4.09,9.65,8.82,15.19,12,17.58,10.07,29.13,7.94,46.03-6.09,32.11-26.66,54.63-60.47,67.69-100.19,4.5-13.66,3.08-21.14-8.42-28.41-20.12-12.73-26.45-31.56-23.07-54.08,2.15-14.4,5.09-28.73,8.62-42.86,2.74-11,8.77-20.73,18.52-26.79,12.27-7.64,25.44-6.22,37.35.87,26.56,15.78,42.22,38.8,47.37,69.85,3.42,20.55-.8,39.66-5.51,58.99Z"/>
  <g>
    <path class="cls-1" d="M872.47,808.17c14.24,14.14,19.85,31.04,14.89,50.29-6.57,25.51-31.08,39.17-55.39,33.41-9.06-2.15-16.88-6.75-23.52-13.56-23.86-24.52-47.82-48.96-71.83-73.34-2.97-3.01-4.13-4.76-4.13-4.76,19.74-20.18,43.14-44.39,62.77-64.7.65-.67,1.36-1.29,3.6-3.41,4.51,5.03,8.54,9.9,12.94,14.41,20.14,20.63,40.21,41.36,60.66,61.67Z"/>
    <path class="cls-1" d="M910.24,509.58c-2.43,19.86-6.91,39.69-12.56,58.9-5.14,17.48-11.8,34.15-19.63,50.18-15.55,31.88-35.74,61.23-57.89,89.44-5.24,6.69-11.12,12.87-16.51,19.46-1.08,1.32-3.01,3.17-3.97,3.42-1.4.38-1.83-1.44-3.6-3.22-18.54-18.75-37.17-37.41-55.81-56.06-4.74-4.75-9.49-9.5-14.23-14.24-3.27-3.27-6.66-6.42-10.17-9.41-.31-.27-.6-.52-.86-.79-2.75-2.75-2.61-5.43-.4-9.23,8.36-14.33,16.94-28.61,24.15-43.53,10.57-21.88,16.96-45.16,21.05-69.19,4.72-27.81,4.95-55.74,1.6-83.49-3.55-29.46-11.88-57.86-24.59-84.86-15.87-33.7-37.26-63.46-64.47-88.76-24.66-22.95-52.3-41.81-83.84-53.99-17.66-6.83-35.77-13.26-54.25-17.01-26.17-5.31-52.76-9.31-79.72-4.64-15.42,2.67-31.2,3.65-46.34,7.36-2.8.69-5.6,1.42-8.39,2.21-12.46,3.49-24.74,7.92-36.58,13.04-17.53,7.56-34,16.71-49.37,27.44-16.25,11.3-31.29,24.36-45.07,39.13-9.04,9.7-17.31,19.93-24.85,30.68-7.81,11.09-14.84,22.73-21.19,34.88-15.58,29.87-24.94,61.55-29.49,94.75-2.52,18.34-4.3,36.79-2.01,55.29,3.04,24.59,6.91,49.06,14.97,72.6,10.37,30.28,24.99,58.37,44.65,83.74,22.23,28.67,48.77,52.49,79.91,71.09,21.47,12.83,44.2,22.7,68.35,29.53,31.41,8.86,63.34,13.07,95.83,10.73,23.04-1.68,45.62-5.73,67.57-12.68,6.56-2.07,13.06-4.39,19.5-6.99,19.46-7.84,37.86-17.49,55.23-29.18,2.47-1.67,4.3-1.87,6.19-.71.63.38,1.27.92,1.94,1.6,8.75,8.89,17.53,17.76,26.32,26.62,9.95,10.04,19.93,20.07,29.93,30.08,4.54,4.53,9.26,9.17,14.11,13.91,1.21,1.18,2.42,2.37,3.65,3.55,3.67,3.58,7.39,7.2,11.13,10.85-7.6,6.55-13.76,12.4-20.46,17.56-26.34,20.34-52.97,40.3-82.65,55.59-23.28,12.01-47.31,22.07-72.69,29.16-24.25,6.76-49.01,9.41-73.81,10.71-15.16.79-30.65-1.57-45.75-3.94-14.35-2.27-28.78-5.3-42.49-10.02-18.95-6.52-37.65-14.07-55.74-22.73-34-16.26-64.77-37.88-93.11-62.5-23.27-20.22-45.4-41.85-67.04-63.82-15.15-15.37-29.45-31.74-42.65-48.81-13.88-17.94-26.58-36.87-38.78-56-13.93-21.85-24.51-45.5-32.92-70-6.23-18.14-10.52-36.75-13.45-55.81-3.64-23.63-4.04-47.23-1.63-70.78,1.67-16.26,4.53-32.68,9.24-48.31,5.93-19.7,12.84-39.4,21.99-57.77,10.75-21.56,23.64-42.17,36.9-62.33,23.9-36.31,54.01-67.38,84.76-97.89,8.59-8.52,17.32-16.84,26.26-24.91,18.46-16.72,37.78-32.41,58.27-46.68,24.14-16.81,49.69-31.17,76.84-42.64,22.17-9.36,45.05-16.21,68.73-20.49,26-4.71,52.27-5.52,78.36-2.71,23.63,2.54,46.76,8.11,69.31,16.27,55.2,20,103.32,51.47,146.36,90.72,25.52,23.27,50.16,47.65,73.72,72.91,30.35,32.53,56.21,68.6,76.51,108.35,12.44,24.38,22.3,49.74,28.72,76.51,7.75,32.33,10.92,65,6.88,97.87Z"/>
    <path class="cls-1" d="M342.21,355.8c-15.78,16.85-28.09,36.05-38.74,56.44-3.68,7.05-8.4,13.27-17.36,13.67-11.2.5-19.19-7.68-19.24-19.44-.68-9.79,5.41-17.09,9.59-24.95,12.21-23,27.9-43.51,46.48-61.68,14.55-14.23,30.41-26.92,48.02-37.3,10.61-6.25,22.16-4.48,27.51,4.29,6.26,10.22,3.72,22.37-6.84,29.01-18.08,11.37-34.79,24.34-49.42,39.95Z"/>
    <path class="cls-1" d="M324.29,601.47c-.96-7.12,1.14-13.92,6.68-18.62,15.06-12.78,30.43-25.22,45.75-37.7,2.85-2.32,5.91-4.48,9.13-6.25,9.72-5.35,16.79-4.52,25.44,2.53,5,4.09,9.65,8.82,15.19,12,17.58,10.07,29.13,7.94,46.03-6.09,32.11-26.66,54.63-60.47,67.69-100.19,4.5-13.66,3.08-21.14-8.42-28.41-20.12-12.73-26.45-31.56-23.07-54.08,2.15-14.4,5.09-28.73,8.62-42.86,2.74-11,8.77-20.73,18.52-26.79,12.27-7.64,25.44-6.22,37.35.87,26.56,15.78,42.22,38.8,47.37,69.85,3.42,20.55-.8,39.66-5.51,58.99-5.96,24.45-14.44,48.04-25.11,70.88-14.75,31.58-33.99,60.03-57.97,85.32-30.03,31.64-65.38,55.74-104.83,73.97-3.31,1.52-6.99,2.51-10.6,3.04-4.38.63-8.85.52-14.62.8-18.46-1.26-37.45-4.89-53.9-16.96-13.67-10.04-21.51-23.61-23.74-40.3Z"/>
  </g>
</svg>