<?xml version="1.0" encoding="UTF-8"?>
<svg id="Layer_1" data-name="Layer 1" xmlns="http://www.w3.org/2000/svg" viewBox="0 0 960 960">
  <defs>
    <style>
      .cls-1 {
        fill: #fff;
      }

      .cls-1, .cls-2 {
        stroke-width: 0px;
      }

      .cls-2 {
        fill: #007aff;
      }
    </style>
  </defs>
  <g>
    <path class="cls-2" d="M391.53,492.66c-3.43,1.74-6.6,3.9-10.1,5.04-20.7,6.7-39.78-9.04-37.44-30.62,1.38-12.68,8.07-21.13,20.24-24.56,11.68-3.29,21.98-.34,30.06,8.99,4.39,5.06,5.99,11.27,6.13,17.77.2,9.15.37,18.33-.03,27.47-.67,15.51-10.51,25.68-25.14,27.41-.91.11-1.85.15-2.77.11-2.76-.11-4.47-1.57-4.72-3.94-.21-2.01,1.62-4.23,4.01-4.77.9-.2,1.83-.38,2.74-.39,9.9-.13,16.63-8.33,16.99-18.37.05-1.42,0-2.85,0-4.13ZM352.93,466.84c-.06,10.98,2.5,17.21,9.19,20.87,6.58,3.6,13.62,3.82,20.25.12,7.39-4.13,9.41-11.13,9.16-19.13-.51-16.34-16.96-21.87-27.97-16.73-7.94,3.71-10.64,10.22-10.63,14.86Z"/>
    <path class="cls-2" d="M805.56,448.42c.33-3.21,1.65-5.08,4.75-5.11,2.65-.03,4.18,1.2,4.24,3.88.16,6.89.06,13.79.26,20.68.12,4.18.46,8.36.99,12.51.51,3.92,3.11,6.64,6.09,8.95,1.83,1.43,2.32,3.42,1.44,5.13-.7,1.35-2.47,2.32-3.97,3.02-.62.29-2.03-.29-2.64-.9-2.18-2.17-4.16-4.53-6.22-6.82-.27-.3-.54-.6-1.1-1.22-8.24,8.88-18.25,12.39-30.08,9.83-5.94-1.28-10.93-4.3-14.76-9.06-8.79-10.93-8.77-27.56.16-38.34,5.12-6.19,12.04-8.94,19.9-9.56,7.82-.62,14.71,1.79,20.95,7ZM766.92,470.1c.11,5.62,1.25,10.93,5.5,14.95,5.73,5.41,12.68,6.27,20,4.39,8.89-2.28,14.28-11.33,13.13-21.49-.74-6.52-3.16-12.13-9.19-15.35-12.4-6.65-29.93-.03-29.45,17.5Z"/>
    <path class="cls-2" d="M423.21,474.73c.76,7.78,7.43,14.56,14.89,15.05,4.57.3,9.2.74,13.61-1.5,2.17-1.1,3.59.99,4.7,2.42,1.1,1.41.91,3.12-.39,4.61-2.11,2.41-5.01,2.97-7.9,3.49-15.27,2.73-29.51-4.8-33.25-20.2-3.59-14.78,1.72-31.76,20.09-36.3,7.99-1.98,15.71-1.08,22.83,3.34,6.48,4.03,9.99,9.84,9.28,17.5-.7,7.59-5.55,12.42-12.17,15.51-6.39,2.98-13.2,3.57-19.97,1.9-3.34-.83-6.4-2.81-9.56-4.32-.72-.34-1.33-.91-2.16-1.5ZM442.46,472.32c.07.22-.07-.22,0,0,2.47-.13,7.3-.75,10.36-2.37,7.01-3.72,7.48-11.06,1.28-15.95-8.25-6.5-20.19-3.92-26.18,1.8-3.9,3.73-3.58,8.33.59,11.78,4.02,3.32,8.69,4.95,13.95,4.74Z"/>
    <path class="cls-2" d="M578.35,473.67c.11-14.84,4.58-24.15,15.47-29.32,14.16-6.73,32.11-2.15,38.54,13.37,6.43,15.52.86,34.75-16.59,40.11-20.21,6.2-37.83-7.71-37.42-24.16ZM587.28,470.25c.02,11.47,5.77,18.3,16.76,19.92,8.68,1.28,16.64-2.6,20.02-10.21,2.54-5.72,2.65-11.75.64-17.71-1.43-4.23-4.13-7.47-8.12-9.54-12.98-6.77-29.9.49-29.3,17.54Z"/>
    <path class="cls-2" d="M702.53,479.65c0,4.29.08,8.58-.03,12.87-.08,3.08-2.35,5.23-5.04,5.06-2.17-.13-3.92-2.7-3.91-5.6.03-7.74.12-15.48,0-23.22-.14-9.26-6.05-16.21-15.39-18.36-7.75-1.78-17.13,2.54-21.09,9.6-2.09,3.72-1.92,7.8-2.04,11.8-.2,6.72-.02,13.46-.19,20.19-.04,1.39-.51,3.23-1.48,4.01-1.12.91-3.29,1.58-4.47,1.09-1.36-.57-3.04-2.53-3.03-3.87.05-10.16-.52-20.47,1.05-30.43,1.82-11.52,9.82-18.55,21.33-20.82,11.85-2.34,21.81,1.12,29.13,10.98,4.59,6.19,5.25,13.49,5.35,20.89.03,1.93,0,3.87,0,5.8h-.2Z"/>
    <path class="cls-2" d="M888.21,465.84c0-3.53.03-7.06,0-10.6-.03-2.79-1.2-3.89-4-4.05-1.32-.08-2.68-.2-3.95-.57-1.85-.54-2.71-1.98-2.52-3.87.2-1.92,1.46-2.99,3.3-3.28,1.4-.22,2.89-.05,4.24-.4,2.03-.52,3.18-1.78,3.13-4.15-.11-5.88-.07-11.77.04-17.66.02-1.17.31-2.71,1.08-3.4,1.05-.93,2.82-1.89,4.03-1.63,2.25.47,4.08,2,4.08,4.76-.01,6.14.01,12.28-.04,18.42-.03,2.73,1.11,4,3.82,3.98,3.36-.02,6.73-.08,10.09-.08,3.13,0,4.72,1.01,4.98,3.12.28,2.26-1.59,4.69-4.35,5.01-3.15.36-6.37.54-9.53.34-3.93-.25-4.86.31-4.82,4.32.07,6.8-.22,13.64.51,20.37.8,7.36,7.54,12.9,14.93,13.41,1.17.08,2.34.26,3.49.48,3.03.58,4.47,2.21,4.39,4.9-.07,2.17-2.09,4.32-4.83,4.18-3.32-.17-6.76-.59-9.86-1.72-7.41-2.72-12.84-7.74-16.03-15.13-2.33-5.41-2.18-11.09-2.2-16.77Z"/>
    <path class="cls-2" d="M729.93,431.13c0,2.86.04,5.72-.01,8.58-.04,2.13,1.2,3.62,3.38,3.65,3.62.05,7.24,0,10.85,0,3.15,0,4.62,1.02,4.79,3.27.19,2.53-1.78,4.78-4.63,4.94-2.34.13-4.7-.07-7.05-.15-.67-.02-1.36-.28-2-.18-5.5.82-5.29-.14-5.22,5.29.08,5.97-.36,11.97.15,17.89.82,9.48,8.51,15.93,18.05,15.81,2.86-.04,5.1,1.81,5.2,4.29.12,2.74-1.6,4.66-4.69,4.74-11.1.29-22.38-6.53-26.46-18.48-1.72-5.04-2.01-10.19-1.89-15.43.08-3.45.05-6.9.04-10.35-.01-2.85-1.11-3.85-3.98-3.94-1.23-.04-2.5-.21-3.68-.56-1.79-.53-2.42-1.91-2.27-3.73.14-1.76,1.08-2.83,2.76-3.14,1.23-.23,2.5-.23,3.75-.34,2.25-.19,3.51-1.17,3.47-3.67-.09-5.89-.04-11.78-.02-17.67.01-2.97,2.15-5.79,4.38-5.88,2.8-.12,5.02,2.24,5.14,5.7.11,3.11.02,6.23.02,9.34-.03,0-.06,0-.08,0Z"/>
    <path class="cls-2" d="M492.9,430.64c0,3.03-.01,6.06,0,9.08.01,2.45,1.2,3.66,3.69,3.68,3.53.03,7.07-.03,10.6,0,3.08.03,4.86,1.33,4.95,3.53.1,2.31-1.74,4.16-4.63,4.31-3.18.16-6.38.17-9.56.03-4.24-.18-5.09.68-4.98,4.81.17,6.13-.25,12.3.28,18.39.76,8.74,7.54,15.39,16.57,15.51,1,.01,2.03.07,2.99.34,2.43.68,3.92,2.81,3.68,5.04-.25,2.31-1.81,4.04-4.47,3.86-3.56-.24-7.31-.59-10.58-1.89-12.35-4.91-17.44-14.81-17.82-27.57-.15-4.96-.05-9.92-.08-14.89-.01-2.88-.98-3.79-3.98-3.86-1.17-.03-2.37-.05-3.48-.34-1.74-.45-2.63-1.66-2.58-3.54.05-1.85.91-3.04,2.69-3.47.89-.22,1.82-.29,2.74-.3,3.99-.07,4.82-.91,4.81-4.94-.01-5.22-.15-10.43.04-15.64.06-1.71.6-3.69,1.63-4.98.79-.99,2.83-1.7,4.09-1.44,2.03.42,3.42,2.09,3.43,4.43.02,3.28,0,6.56,0,9.84h-.02Z"/>
    <path class="cls-2" d="M858.93,490.4c2.65-.64,5.33-1.19,7.95-1.95,2.69-.78,5.02,0,6.14,2.32,1.09,2.26.6,4.1-2.11,5.67-4.32,2.51-9.17,3.46-14.09,2.97-11.94-1.19-20.91-6.87-24.98-18.53-4.87-13.96-.54-32.4,17.65-38.27,6.67-2.16,13.42-2.1,20,.64,3.39,1.41,4.8,3.75,3.79,6.12-1.1,2.58-4.24,3.57-7.37,2.33-13.61-5.39-26.45,3.19-26.56,17.79-.03,4.24.39,8.41,2.76,12.12,3.91,6.11,9.56,8.69,16.82,8.79Z"/>
    <path class="cls-2" d="M534.57,470.23c-.01,10.27,4.27,16.8,12.99,19.17,5.01,1.36,10.02,1.19,15.02-.83,1.3-.53,3.66.23,4.91,1.2,1.54,1.2,1.64,3.42.25,5-1.01,1.15-2.4,2.24-3.83,2.7-10.58,3.42-20.66,2.27-29.1-5.16-8.21-7.22-10.72-16.89-8.97-27.53,3.22-19.53,21.48-26.24,36.14-22.37,1.37.36,2.68.99,3.96,1.61,2.09,1.02,3.27,3.84,2.48,5.72-.75,1.78-3.4,2.89-5.61,2.34-2.59-.64-5.15-1.68-7.76-1.85-10.71-.69-21.07,5.88-20.47,20Z"/>
  </g>
  <path class="cls-1" d="M266.82,545.37c-5.63-5.7-11.29-11.37-16.96-17.03-1.44-1.44-2.88-2.89-4.32-4.33-.99-.99-2.02-1.95-3.09-2.86-.09-.08-.18-.16-.26-.24-.84-.84-.79-1.65-.12-2.8,2.54-4.35,5.15-8.69,7.34-13.23,3.21-6.65,5.15-13.72,6.39-21.02,1.43-8.45,1.51-16.93.49-25.37-1.08-8.95-3.61-17.58-7.47-25.78-4.82-10.24-11.32-19.28-19.59-26.97-7.49-6.97-15.89-12.7-25.47-16.4-5.37-2.08-10.87-4.03-16.48-5.17-7.95-1.61-16.03-2.83-24.22-1.41-4.68.81-9.48,1.11-14.08,2.24-.85.21-1.7.43-2.55.67-3.79,1.06-7.52,2.41-11.11,3.96-5.33,2.3-10.33,5.08-15,8.34-4.94,3.43-9.51,7.4-13.69,11.89-2.75,2.95-5.26,6.05-7.55,9.32-2.37,3.37-4.51,6.9-6.44,10.6-4.73,9.07-7.58,18.7-8.96,28.79-.77,5.57-1.31,11.18-.61,16.8.92,7.47,2.1,14.91,4.55,22.06,3.15,9.2,7.59,17.73,13.57,25.44,6.75,8.71,14.82,15.95,24.28,21.6,6.52,3.9,13.43,6.9,20.77,8.97,9.54,2.69,19.25,3.97,29.12,3.26,7-.51,13.86-1.74,20.53-3.85,1.99-.63,3.97-1.33,5.93-2.12,5.91-2.38,11.5-5.32,16.78-8.87.75-.51,1.31-.57,1.88-.22.19.11.38.28.59.49,2.66,2.7,5.33,5.4,8,8.09,3.02,3.05,6.05,6.1,9.09,9.14,1.38,1.38,2.81,2.79,4.29,4.23.37.36.74.72,1.11,1.08,1.11,1.09,2.24,2.19,3.38,3.3,4.09-3.66,7.84-7.68,11.66-11.65,3.26-3.38,6.5-6.79,9.63-10.28-.43.11-.85-.11-1.39-.65ZM111.87,453.66c-3.4.15-5.83-2.33-5.84-5.91-.21-2.97,1.64-5.19,2.91-7.58,3.71-6.99,8.48-13.22,14.12-18.74,4.42-4.32,9.24-8.18,14.59-11.33,3.22-1.9,6.73-1.36,8.36,1.3,1.9,3.1,1.13,6.8-2.08,8.81-5.49,3.46-10.57,7.39-15.01,12.14-4.8,5.12-8.53,10.95-11.77,17.15-1.12,2.14-2.55,4.03-5.27,4.15ZM211.82,453.3c-1.81,7.43-4.39,14.6-7.63,21.53-4.48,9.59-10.33,18.24-17.61,25.92-9.13,9.61-19.86,16.93-31.85,22.48-1.01.46-2.12.76-3.22.92-1.33.19-2.69.16-4.44.24-5.61-.38-11.38-1.48-16.38-5.15-4.15-3.05-6.54-7.17-7.21-12.24-.29-2.16.35-4.23,2.03-5.66,4.58-3.88,9.25-7.66,13.9-11.45.87-.71,1.8-1.36,2.77-1.9,2.95-1.63,5.1-1.37,7.73.77,1.52,1.24,2.93,2.68,4.62,3.64,5.34,3.06,8.85,2.41,13.98-1.85,9.76-8.1,16.6-18.37,20.57-30.44,1.37-4.15.93-6.42-2.56-8.63-6.11-3.87-8.04-9.59-7.01-16.43.65-4.37,1.55-8.73,2.62-13.02.83-3.34,2.67-6.3,5.63-8.14,3.73-2.32,7.73-1.89,11.35.26,8.07,4.8,12.83,11.79,14.39,21.22,1.04,6.24-.24,12.05-1.67,17.92Z"/>
  <g>
    <path class="cls-2" d="M290.02,569.8c4.33,4.3,6.03,9.43,4.52,15.28-1.99,7.75-9.44,11.9-16.83,10.15-2.75-.65-5.13-2.05-7.15-4.12-7.25-7.45-14.53-14.88-21.82-22.28-.9-.92-1.26-1.45-1.26-1.45,6-6.13,13.11-13.49,19.07-19.66.2-.21.41-.39,1.09-1.04,1.37,1.53,2.6,3.01,3.93,4.38,6.12,6.27,12.22,12.57,18.43,18.74Z"/>
    <path class="cls-2" d="M301.5,479.08c-.74,6.03-2.1,12.06-3.82,17.9-1.56,5.31-3.58,10.38-5.96,15.25-4.72,9.69-10.86,18.6-17.59,27.17-1.59,2.03-3.38,3.91-5.01,5.91-.33.4-.92.96-1.21,1.04-.43.11-.56-.44-1.09-.98-5.63-5.7-11.29-11.37-16.96-17.03-1.44-1.44-2.88-2.89-4.32-4.33-.99-.99-2.02-1.95-3.09-2.86-.09-.08-.18-.16-.26-.24-.84-.84-.79-1.65-.12-2.8,2.54-4.35,5.15-8.69,7.34-13.23,3.21-6.65,5.15-13.72,6.39-21.02,1.43-8.45,1.51-16.93.49-25.37-1.08-8.95-3.61-17.58-7.47-25.78-4.82-10.24-11.32-19.28-19.59-26.97-7.49-6.97-15.89-12.7-25.47-16.4-5.37-2.08-10.87-4.03-16.48-5.17-7.95-1.61-16.03-2.83-24.22-1.41-4.68.81-9.48,1.11-14.08,2.24-.85.21-1.7.43-2.55.67-3.79,1.06-7.52,2.41-11.11,3.96-5.33,2.3-10.33,5.08-15,8.34-4.94,3.43-9.51,7.4-13.69,11.89-2.75,2.95-5.26,6.05-7.55,9.32-2.37,3.37-4.51,6.9-6.44,10.6-4.73,9.07-7.58,18.7-8.96,28.79-.77,5.57-1.31,11.18-.61,16.8.92,7.47,2.1,14.91,4.55,22.06,3.15,9.2,7.59,17.73,13.57,25.44,6.75,8.71,14.82,15.95,24.28,21.6,6.52,3.9,13.43,6.9,20.77,8.97,9.54,2.69,19.25,3.97,29.12,3.26,7-.51,13.86-1.74,20.53-3.85,1.99-.63,3.97-1.33,5.93-2.12,5.91-2.38,11.5-5.32,16.78-8.87.75-.51,1.31-.57,1.88-.22.19.11.38.28.59.49,2.66,2.7,5.33,5.4,8,8.09,3.02,3.05,6.05,6.1,9.09,9.14,1.38,1.38,2.81,2.79,4.29,4.23.37.36.74.72,1.11,1.08,1.11,1.09,2.24,2.19,3.38,3.3-2.31,1.99-4.18,3.77-6.22,5.34-8,6.18-16.09,12.24-25.11,16.89-7.07,3.65-14.37,6.71-22.08,8.86-7.37,2.06-14.89,2.86-22.42,3.25-4.61.24-9.31-.48-13.9-1.2-4.36-.69-8.74-1.61-12.91-3.04-5.76-1.98-11.44-4.28-16.93-6.9-10.33-4.94-19.68-11.51-28.29-18.99-7.07-6.14-13.79-12.72-20.37-19.39-4.6-4.67-8.95-9.64-12.96-14.83-4.22-5.45-8.08-11.2-11.78-17.02-4.23-6.64-7.45-13.82-10-21.27-1.89-5.51-3.2-11.17-4.09-16.96-1.11-7.18-1.23-14.35-.5-21.5.51-4.94,1.38-9.93,2.81-14.68,1.8-5.99,3.9-11.97,6.68-17.55,3.27-6.55,7.18-12.81,11.21-18.94,7.26-11.03,16.41-20.47,25.75-29.74,2.61-2.59,5.26-5.12,7.98-7.57,5.61-5.08,11.48-9.85,17.7-14.18,7.33-5.11,15.1-9.47,23.35-12.96,6.74-2.84,13.69-4.92,20.88-6.23,7.9-1.43,15.88-1.68,23.81-.82,7.18.77,14.21,2.46,21.06,4.94,16.77,6.08,31.39,15.64,44.47,27.56,7.75,7.07,15.24,14.48,22.4,22.15,9.22,9.88,17.08,20.84,23.24,32.92,3.78,7.41,6.78,15.11,8.73,23.24,2.36,9.82,3.32,19.75,2.09,29.73Z"/>
    <path class="cls-2" d="M128.92,432.36c-4.8,5.12-8.53,10.95-11.77,17.15-1.12,2.14-2.55,4.03-5.27,4.15-3.4.15-5.83-2.33-5.84-5.91-.21-2.97,1.64-5.19,2.91-7.58,3.71-6.99,8.48-13.22,14.12-18.74,4.42-4.32,9.24-8.18,14.59-11.33,3.22-1.9,6.73-1.36,8.36,1.3,1.9,3.1,1.13,6.8-2.08,8.81-5.49,3.46-10.57,7.39-15.01,12.14Z"/>
    <path class="cls-2" d="M123.47,507c-.29-2.16.35-4.23,2.03-5.66,4.58-3.88,9.25-7.66,13.9-11.45.87-.71,1.8-1.36,2.77-1.9,2.95-1.63,5.1-1.37,7.73.77,1.52,1.24,2.93,2.68,4.62,3.64,5.34,3.06,8.85,2.41,13.98-1.85,9.76-8.1,16.6-18.37,20.57-30.44,1.37-4.15.93-6.42-2.56-8.63-6.11-3.87-8.04-9.59-7.01-16.43.65-4.37,1.55-8.73,2.62-13.02.83-3.34,2.67-6.3,5.63-8.14,3.73-2.32,7.73-1.89,11.35.26,8.07,4.8,12.83,11.79,14.39,21.22,1.04,6.24-.24,12.05-1.67,17.92-1.81,7.43-4.39,14.6-7.63,21.53-4.48,9.59-10.33,18.24-17.61,25.92-9.13,9.61-19.86,16.93-31.85,22.48-1.01.46-2.12.76-3.22.92-1.33.19-2.69.16-4.44.24-5.61-.38-11.38-1.48-16.38-5.15-4.15-3.05-6.54-7.17-7.21-12.24Z"/>
  </g>
</svg>