<?xml version="1.0" encoding="UTF-8"?>
<svg version="1.1" xmlns="http://www.w3.org/2000/svg" width="512" height="512">
<path d="M0 0 C1.19275543 -0.0071553 2.38551086 -0.01431061 3.6144104 -0.02168274 C4.91473709 -0.02437164 6.21506378 -0.02706055 7.55479431 -0.02983093 C8.94491239 -0.036101 10.33502881 -0.04274828 11.72514343 -0.04974365 C16.28285061 -0.07072757 20.84055788 -0.081143 25.39830017 -0.09111023 C26.9721319 -0.09516036 28.54596346 -0.09927736 30.11979485 -0.10346031 C37.51801608 -0.12250214 44.91622743 -0.13673343 52.31446844 -0.14507228 C60.83024216 -0.15483127 69.34575502 -0.18111985 77.8614369 -0.22157317 C84.45870042 -0.25182808 91.05588958 -0.26655013 97.65322107 -0.26985329 C101.58616288 -0.27219372 105.51882573 -0.28102134 109.45169258 -0.30631447 C113.15773382 -0.32976419 116.86331575 -0.33376154 120.56941223 -0.32355309 C122.55904098 -0.3228294 124.54864729 -0.34180242 126.53817749 -0.36161804 C138.65233647 -0.29224162 148.45737222 2.70969072 158.05064392 10.14717102 C159.08318298 10.91674133 159.08318298 10.91674133 160.13658142 11.70185852 C170.08633172 19.66928309 176.02228602 31.66637419 178.05064392 44.14717102 C178.26945411 46.75398372 178.46077245 49.34937291 178.61314392 51.95967102 C178.65632751 52.65254211 178.69951111 53.34541321 178.7440033 54.0592804 C178.84925845 55.75505789 178.95037256 57.45109154 179.05064392 59.14717102 C180.0469281 58.56600525 180.0469281 58.56600525 181.06333923 57.97309875 C181.99243103 57.43112854 182.92152283 56.88915833 183.87876892 56.33076477 C184.9074408 55.73070618 185.93611267 55.13064758 186.99595642 54.5124054 C196.62876892 48.89326477 196.62876892 48.89326477 199.83384705 47.02949524 C202.00083297 45.76147296 204.16090914 44.48157665 206.3143158 43.19062805 C207.87762634 42.25839417 207.87762634 42.25839417 209.47251892 41.30732727 C210.86615662 40.46826843 210.86615662 40.46826843 212.28794861 39.61225891 C220.92182993 35.03361612 231.2021791 34.35372972 240.51548767 37.20967102 C249.01437035 41.15366702 254.80426779 46.33634952 258.20579529 55.13813782 C260.3709244 61.35492174 260.61621465 67.06843305 260.56822205 73.60420227 C260.57873596 75.394272 260.57873596 75.394272 260.58946228 77.22050476 C260.60394219 80.46038359 260.60070225 83.69959706 260.58794594 86.93946457 C260.57772611 90.35091662 260.58723627 93.76232832 260.5934906 97.17378235 C260.60074116 102.89969203 260.59124794 108.62539446 260.5721283 114.35127258 C260.55036432 120.94466037 260.55741755 127.53755318 260.57943392 134.13092899 C260.59766239 139.82049029 260.60011013 145.50990372 260.58967924 151.19948483 C260.58348492 154.58509353 260.58249512 157.97047058 260.5958252 161.35606384 C260.60604366 165.134424 260.59041371 168.91184883 260.56822205 172.69013977 C260.58036743 174.34413284 260.58036743 174.34413284 260.59275818 176.03153992 C260.49116113 185.42246397 258.51918679 194.55348102 251.89830017 201.58076477 C245.03113821 207.40260821 238.44385439 210.33470762 229.48814392 210.45967102 C228.82234314 210.48867493 228.15654236 210.51767883 227.4705658 210.54756165 C217.15885344 210.67535217 208.58843359 204.96180788 200.05064392 199.77217102 C199.1302533 199.22045227 198.20986267 198.66873352 197.26158142 198.10029602 C194.52064155 196.4557321 191.78559954 194.80166244 189.05064392 193.14717102 C187.15530973 192.00831908 185.2595016 190.87025539 183.36314392 189.73310852 C182.53427673 189.23601379 181.70540955 188.73891907 180.85142517 188.22676086 C180.25716736 187.87049622 179.66290955 187.51423157 179.05064392 187.14717102 C179.02486267 188.15135071 178.99908142 189.1555304 178.97251892 190.19013977 C178.34735655 207.1970653 173.67563983 222.12217492 161.05064392 234.14717102 C151.91038052 241.68442027 142.02933338 246.24505993 130.10128784 246.29434204 C128.90853241 246.30149734 127.71577698 246.30865265 126.48687744 246.31602478 C125.18655075 246.31871368 123.88622406 246.32140259 122.54649353 246.32417297 C121.15637545 246.33044305 119.76625903 246.33709032 118.37614441 246.34408569 C113.81843724 246.36506962 109.26072996 246.37548504 104.70298767 246.38545227 C103.12915594 246.38950241 101.55532438 246.3936194 99.981493 246.39780235 C92.58327176 246.41684418 85.18506041 246.43107547 77.7868194 246.43941432 C69.27104568 246.44917331 60.75553282 246.47546189 52.23985094 246.51591522 C45.64258742 246.54617012 39.04539827 246.56089217 32.44806677 246.56419533 C28.51512496 246.56653577 24.58246211 246.57536338 20.64959526 246.60065651 C16.94355403 246.62410624 13.23797209 246.62810358 9.53187561 246.61789513 C7.54224686 246.61717144 5.55264055 246.63614446 3.56311035 246.65596008 C-10.33853242 246.57634695 -21.98785208 242.2679402 -32.39076233 232.96357727 C-45.2899311 219.67154042 -48.25374556 204.58685068 -48.23988342 186.73603821 C-48.24587696 185.18931761 -48.25268439 183.64259999 -48.26023865 182.09588623 C-48.27782255 177.91591137 -48.28259082 173.73601852 -48.28387022 169.55601025 C-48.28529678 166.93817746 -48.28957591 164.3203652 -48.29486465 161.70253754 C-48.31334022 152.55174447 -48.32153843 143.40100947 -48.31996155 134.25019836 C-48.31876104 125.74948588 -48.339852 117.24902766 -48.37144887 108.74837947 C-48.39768734 101.42575039 -48.40832567 94.10320397 -48.40705073 86.78052831 C-48.40654329 82.41783644 -48.41210483 78.05537074 -48.43340683 73.69272614 C-48.45291728 69.58526323 -48.4528273 65.47823928 -48.43837357 61.37075996 C-48.43630009 59.87330285 -48.44089799 58.37581731 -48.45309448 56.87840843 C-48.57931612 40.29207837 -44.27143171 26.3732478 -32.92201233 14.02607727 C-23.74894536 5.28895804 -12.71360116 0.05252773 0 0 Z M-19.94935608 32.14717102 C-27.25917332 41.45227001 -27.24397951 51.18152598 -27.20814514 62.59028625 C-27.21085894 64.04482701 -27.21442205 65.49936639 -27.21876526 66.9539032 C-27.22784613 70.88576113 -27.22436262 74.81751354 -27.21800709 78.7493732 C-27.21292378 82.87579544 -27.21764509 87.00220898 -27.22077942 91.12863159 C-27.22441269 98.05776074 -27.21963717 104.98684719 -27.21009827 111.91596985 C-27.19921924 119.91054855 -27.20273785 127.90502518 -27.21375108 135.8996014 C-27.2228473 142.77968542 -27.2240977 149.65973883 -27.21887374 156.53982693 C-27.21576631 160.64187832 -27.21531072 164.74388184 -27.22194672 168.8459301 C-27.22775345 172.70457958 -27.22366282 176.56309839 -27.2121582 180.42173386 C-27.20952915 181.83217083 -27.21024646 183.24261893 -27.21468353 184.65305138 C-27.24888646 196.63651975 -26.77724431 207.12218911 -18.05482483 216.09638977 C-11.13305375 222.40936263 -4.7980877 225.25231443 4.58912659 225.29434204 C6.24159393 225.305075 6.24159393 225.305075 7.92744446 225.31602478 C9.72600388 225.32005814 9.72600388 225.32005814 11.56089783 225.32417297 C13.46669617 225.33402977 13.46669617 225.33402977 15.41099548 225.34408569 C19.61638644 225.36505838 23.82177746 225.37548331 28.02720642 225.38545227 C29.4797149 225.38950269 30.93222319 225.3936197 32.38473129 225.39780235 C39.21217263 225.41684095 46.03960327 225.43107345 52.86706603 225.43941432 C60.72518363 225.44917502 68.58301869 225.47546934 76.44103682 225.51591522 C82.52958421 225.54616837 88.61805103 225.56089196 94.70667207 225.56419533 C98.33610182 225.56653578 101.96522927 225.57536349 105.59457779 225.60065651 C109.65123749 225.62847178 113.70727355 225.62407816 117.76402283 225.61714172 C118.95091705 225.62995178 120.13781128 225.64276184 121.360672 225.65596008 C131.77224176 225.59132717 140.6714342 223.42734389 148.33189392 216.06513977 C156.44497711 207.01167649 157.46730171 197.36989544 157.67564392 185.58467102 C157.73365173 184.4870343 157.79165955 183.38939758 157.85142517 182.25849915 C158.01274688 176.19127911 158.01274688 176.19127911 155.35289001 170.94136047 C153.33142017 169.18150084 151.24586708 167.68032641 149.05064392 166.14717102 C137.28225212 154.77607382 132.05568375 138.6786068 131.55064392 122.58467102 C132.04321159 106.9866948 137.55760201 92.63955026 148.05064392 81.14717102 C148.05064392 80.48717102 148.05064392 79.82717102 148.05064392 79.14717102 C148.60751892 78.89967102 149.16439392 78.65217102 149.73814392 78.39717102 C150.50126892 77.98467102 151.26439392 77.57217102 152.05064392 77.14717102 C152.9143158 76.70244446 153.77798767 76.2577179 154.66783142 75.79951477 C158.49813115 71.53595163 157.65762268 66.9793616 157.48814392 61.45967102 C157.48234314 60.40844055 157.47654236 59.35721008 157.4705658 58.27412415 C157.29063614 46.70824618 155.57391157 37.87566506 147.31236267 29.35420227 C140.74523105 23.45688895 134.29979954 21.03934324 125.51216125 21 C124.41051636 20.9928447 123.30887146 20.98568939 122.17384338 20.97831726 C120.97480377 20.97562836 119.77576416 20.97293945 118.54039001 20.97016907 C117.26985779 20.96359787 115.99932556 20.95702667 114.69029236 20.95025635 C110.4849014 20.92928366 106.27951038 20.91885873 102.07408142 20.90888977 C100.62157294 20.90483935 99.16906465 20.90072234 97.71655655 20.89653969 C90.88911521 20.87750109 84.06168457 20.86326859 77.23422182 20.85492772 C69.37610421 20.84516702 61.51826915 20.8188727 53.66025102 20.77842683 C47.57170363 20.74817367 41.48323681 20.73345008 35.39461577 20.73014671 C31.76518602 20.72780626 28.13605857 20.71897855 24.50671005 20.69368553 C20.45005035 20.66587026 16.3940143 20.67026388 12.33726501 20.67720032 C10.55692368 20.65798523 10.55692368 20.65798523 8.74061584 20.63838196 C-2.69582316 20.70937705 -12.16052494 23.45554354 -19.94935608 32.14717102 Z M220.96470642 59.69404602 C219.53433044 60.51872375 219.53433044 60.51872375 218.07505798 61.36006165 C217.07700134 61.94980774 216.0789447 62.53955383 215.05064392 63.14717102 C212.99651237 64.32002024 210.94181252 65.49187464 208.88658142 66.66279602 C203.31373627 69.8771762 197.75040648 73.10797585 192.18638611 76.33760071 C189.44495268 77.9196238 186.69342516 79.48062481 183.93345642 81.02998352 C170.84575618 88.42774781 157.97441417 97.22106136 153.52330017 112.44013977 C151.07660103 126.45305304 153.8489584 137.89075236 161.68345642 149.66279602 C168.93516877 157.27350403 178.89413786 162.1243911 187.92564392 167.33467102 C190.50241537 168.82601094 193.07776693 170.31977817 195.65220642 171.81513977 C196.60274902 172.36668228 196.60274902 172.36668228 197.57249451 172.92936707 C201.44686241 175.18607035 205.27430631 177.50430288 209.07408142 179.88545227 C209.96756287 180.44144104 210.86104431 180.99742981 211.78160095 181.57026672 C213.40306069 182.58528984 215.01677 183.61285646 216.62046814 184.65571594 C221.50385099 187.69466344 226.18441031 189.64698785 232.05064392 189.14717102 C235.14691436 187.61982434 237.5367778 185.63614418 238.69853687 182.2698431 C239.0859858 179.93411306 239.17957781 177.74017424 239.18435669 175.37191772 C239.18862167 174.4144313 239.19288666 173.45694489 239.19728088 172.47044373 C239.1968277 171.42669586 239.19637451 170.382948 239.19590759 169.30757141 C239.1992662 168.20311172 239.20262482 167.09865204 239.20608521 165.96072388 C239.21559351 162.30541361 239.21753819 158.65014914 239.21861267 154.99482727 C239.22182505 152.45661398 239.22518911 149.91840088 239.22869873 147.38018799 C239.2346895 142.05812577 239.23658145 136.73608066 239.23594666 131.41401672 C239.23534577 125.26669718 239.24590132 119.11946537 239.26169032 112.97216803 C239.27635053 107.05296018 239.2799345 101.1337791 239.27933693 95.21455193 C239.28051829 92.69832946 239.28494875 90.18210636 239.2926693 87.66589546 C239.30245006 84.14924427 239.2995987 80.63281989 239.29356384 77.11616516 C239.29918335 76.07444153 239.30480286 75.0327179 239.31059265 73.95942688 C239.30639816 72.99912064 239.30220367 72.03881439 239.29788208 71.04940796 C239.29842685 70.218537 239.29897161 69.38766603 239.29953289 68.53161716 C238.87062225 64.42249845 237.67416388 61.78801098 234.80064392 58.83467102 C229.80879615 55.77149171 225.80478454 56.85351528 220.96470642 59.69404602 Z " fill="#000000" transform="translate(149.94935607910156,132.8528289794922)"/>
</svg>
