<?xml version="1.0" encoding="UTF-8"?>
<svg version="1.1" xmlns="http://www.w3.org/2000/svg" width="512" height="512">
<path d="M0 0 C1.86408291 -0.00407312 3.72816339 -0.00941914 5.59223938 -0.01593018 C10.6165667 -0.02951484 15.64070762 -0.02434375 20.66503787 -0.01479292 C25.93661394 -0.00715811 31.20817484 -0.01425176 36.47975159 -0.01895142 C45.32181648 -0.02439452 54.16380595 -0.01725187 63.00585938 -0.00292969 C73.22335813 0.01342941 83.44067758 0.00807887 93.65817207 -0.0084089 C102.44743046 -0.02202284 111.2366349 -0.02394494 120.02590042 -0.0160929 C125.26853729 -0.01142043 130.51108982 -0.01078057 135.75372124 -0.02070236 C140.67619042 -0.02936962 145.59842795 -0.0233545 150.52087212 -0.00601959 C152.32603572 -0.002055 154.13121884 -0.00318833 155.93637466 -0.00980759 C158.4014443 -0.01801338 160.8657728 -0.00771395 163.33079529 0.00723267 C164.04373086 0.0005405 164.75666643 -0.00615166 165.49120611 -0.01304662 C170.10640382 0.04118468 173.25439545 0.96729679 177.17797852 3.38818359 C179.37595322 6.09901906 180.10195728 7.87775531 180.61547852 11.32568359 C180.06191529 15.20062619 178.58624321 17.34243707 176.17797852 20.38818359 C168.12261453 24.41586558 158.18414924 21.38818359 149.17797852 21.38818359 C149.17797852 43.16818359 149.17797852 64.94818359 149.17797852 87.38818359 C167.99573551 87.26958054 167.99573551 87.26958054 186.81323242 87.11791992 C189.17699782 87.10915588 191.54076776 87.10151175 193.90454102 87.09521484 C195.73698364 87.07219299 195.73698364 87.07219299 197.60644531 87.04870605 C208.47563955 87.04535757 208.47563955 87.04535757 213.17797852 90.38818359 C215.37595322 93.09901906 216.10195728 94.87775531 216.61547852 98.32568359 C216.05034021 102.28165175 214.7396171 104.34191068 212.17797852 107.38818359 C207.17797852 109.38818359 207.17797852 109.38818359 185.17797852 109.38818359 C185.17797852 130.83818359 185.17797852 152.28818359 185.17797852 174.38818359 C192.43797852 174.38818359 199.69797852 174.38818359 207.17797852 174.38818359 C214.32503734 177.96171301 214.32503734 177.96171301 216.17797852 182.38818359 C216.76560988 186.33370849 216.34172732 188.07281552 214.49047852 191.63818359 C211.97821886 194.62573562 210.83218968 195.2698853 207.17797852 196.38818359 C204.1849823 196.62869263 204.1849823 196.62869263 200.82714844 196.61523438 C198.90944641 196.61487183 198.90944641 196.61487183 196.95300293 196.61450195 C195.60481569 196.60443292 194.2566304 196.59409988 192.90844727 196.58349609 C191.67501587 196.58148193 190.44158447 196.57946777 189.17077637 196.57739258 C184.56897252 196.56693875 179.96722173 196.53901618 175.36547852 196.51318359 C165.07360352 196.47193359 154.78172852 196.43068359 144.17797852 196.38818359 C144.17797852 219.81818359 144.17797852 243.24818359 144.17797852 267.38818359 C154.07797852 267.38818359 163.97797852 267.38818359 174.17797852 267.38818359 C180.04977339 273.25997847 180.04977339 273.25997847 180.49047852 277.13818359 C180.09283487 281.27367755 178.83674241 283.22641032 176.17797852 286.38818359 C171.82849894 288.76739499 167.48767019 288.67438074 162.65380859 288.65560913 C161.79707928 288.66014024 160.94034996 288.66467136 160.05765915 288.66933978 C157.18755448 288.68199731 154.31763925 288.68036249 151.44750977 288.67871094 C149.38907121 288.68469558 147.33063489 288.69150097 145.27220154 288.69906616 C139.67881594 288.71674576 134.08549153 288.72142254 128.49208069 288.72269773 C124.99451054 288.72411945 121.49695594 288.72838959 117.99938965 288.73369217 C105.78823866 288.75220307 93.57713135 288.76036197 81.3659668 288.75878906 C70.00018465 288.75758928 58.63459291 288.77865699 47.26885891 288.81027639 C37.50047383 288.83647915 27.73215074 288.84715459 17.96373081 288.84587824 C12.1344134 288.84536953 6.30526495 288.85100166 0.47598267 288.87223434 C-5.01357851 288.89168252 -10.50281078 288.89169619 -15.99238396 288.87720108 C-17.9994041 288.87511963 -20.00644518 288.87977397 -22.01342964 288.891922 C-37.57571386 288.97996199 -50.77029922 288.13530821 -62.49780273 276.76318359 C-68.93733913 269.86025624 -71.91061759 261.5810723 -71.9831543 252.20581055 C-71.99276184 251.19738602 -72.00236938 250.18896149 -72.01226807 249.14997864 C-72.01651794 248.06971909 -72.02076782 246.98945953 -72.02514648 245.87646484 C-72.03369659 244.19136055 -72.03369659 244.19136055 -72.04241943 242.47221375 C-72.05185598 240.09598732 -72.05839806 237.71974789 -72.06225586 235.34350586 C-72.07193965 231.73120918 -72.10296775 228.11948695 -72.13452148 224.50732422 C-72.14105435 222.19287445 -72.14630371 219.87842064 -72.15014648 217.56396484 C-72.16249329 216.49382645 -72.17484009 215.42368805 -72.18756104 214.32112122 C-72.15360177 202.73183733 -69.2379643 193.15052708 -61.15795898 184.63427734 C-51.19024933 175.55410348 -39.78219278 174.15756102 -26.75952148 173.76318359 C-25.70313477 173.72451172 -24.64674805 173.68583984 -23.55834961 173.64599609 C-20.9797374 173.55265267 -18.40111541 173.46687107 -15.82202148 173.38818359 C-16.24177246 172.78498291 -16.66152344 172.18178223 -17.09399414 171.56030273 C-24.85138453 160.15998852 -27.54547105 146.00270841 -25.12670898 132.50927734 C-23.37295266 124.23434726 -20.82831916 117.33024971 -15.82202148 110.38818359 C-17.48251456 108.72769052 -19.72563565 109.02264751 -22.00952148 108.76318359 C-34.54986953 106.78312864 -45.52032583 100.0612778 -53.11499023 89.93505859 C-60.70038914 78.61771286 -61.96351455 67.06169978 -62.07202148 53.76318359 C-62.08144775 52.89258301 -62.09087402 52.02198242 -62.10058594 51.125 C-62.03424302 37.85391388 -58.3883549 25.71171361 -49.82202148 15.38818359 C-35.25578407 1.60402604 -19.24233045 -0.07116783 0 0 Z M-35.42749023 31.43505859 C-40.53000918 38.58144367 -40.34055687 46.31104643 -40.32202148 54.76318359 C-40.35038086 55.93107422 -40.37874023 57.09896484 -40.40795898 58.30224609 C-40.42712967 66.85237084 -38.95940341 73.81202389 -33.09545898 80.29785156 C-25.11640135 87.98457304 -15.78989354 87.81410242 -5.32788086 87.72875977 C-3.86859149 87.72791242 -2.40930084 87.72839072 -0.95001221 87.73008728 C2.99165058 87.73094449 6.93303689 87.71336356 10.8746357 87.69236541 C15.00124823 87.67355255 19.1278678 87.67184455 23.2545166 87.66828918 C31.05999019 87.65898222 38.86533702 87.63438678 46.67075491 87.60424072 C57.22450361 87.56436888 67.77828721 87.54823093 78.33209229 87.53073406 C94.94748255 87.50256464 111.56260539 87.44278621 128.17797852 87.38818359 C128.17797852 65.60818359 128.17797852 43.82818359 128.17797852 21.38818359 C103.00610977 21.3298915 103.00610977 21.3298915 77.83422852 21.29052734 C67.56565345 21.2786713 57.29711127 21.26475161 47.02856445 21.23730469 C39.54923472 21.21732269 32.06993173 21.20445576 24.59057605 21.2000066 C20.6331157 21.19740735 16.67573181 21.19133088 12.71829605 21.17672348 C8.9869897 21.16306344 5.25579072 21.15897783 1.52446175 21.16196823 C-0.48465729 21.16116294 -2.49376487 21.15044565 -4.50285339 21.13934326 C-17.40184159 21.16848411 -25.76694026 22.59951426 -35.42749023 31.43505859 Z M4.17797852 119.38818359 C-3.40160131 128.70070154 -4.82547083 137.52239511 -3.82202148 149.38818359 C-2.96089824 152.76417812 -1.67764928 155.45155144 0.17797852 158.38818359 C0.60208008 159.08427734 1.02618164 159.78037109 1.46313477 160.49755859 C5.93661788 167.12678705 12.09181713 171.83451502 19.85681343 173.97079086 C25.171183 174.92642269 30.62724706 174.64493506 36.0078125 174.61523438 C37.40784192 174.6146696 38.80787193 174.61498812 40.207901 174.61611938 C43.99254218 174.6166913 47.77705561 174.60496314 51.5616672 174.59097147 C55.52279936 174.57843723 59.48393469 174.57729149 63.44508362 174.57492065 C70.93889731 174.56871379 78.43265238 174.55231374 85.9264403 174.53222167 C96.05786796 174.50564949 106.18931175 174.49488362 116.3207655 174.48321724 C132.27321371 174.46443255 148.22553825 174.42458161 164.17797852 174.38818359 C164.17797852 152.93818359 164.17797852 131.48818359 164.17797852 109.38818359 C139.159438 109.30075526 139.159438 109.30075526 114.14086914 109.24169922 C103.9358263 109.22391033 93.73085786 109.20301737 83.52587891 109.16186523 C76.09307022 109.13190638 68.66032199 109.11259521 61.2274546 109.10591811 C57.29401692 109.10201681 53.36075218 109.09288687 49.42737007 109.07099342 C45.71983362 109.0505256 42.01254021 109.04437041 38.30495262 109.04886055 C36.30635848 109.0476507 34.30779038 109.03156271 32.30926514 109.0149231 C20.79734902 109.05425028 12.54555051 111.22508234 4.17797852 119.38818359 Z M-48.16601562 202.92895508 C-50.5392687 207.88644038 -50.37637342 212.30602515 -50.31811523 217.73583984 C-50.31957047 218.82529404 -50.3210257 219.91474823 -50.32252502 221.03721619 C-50.32086896 223.334327 -50.30934058 225.63144925 -50.28857422 227.9284668 C-50.25959137 231.44221127 -50.26797808 234.9544488 -50.28100586 238.46826172 C-50.27476893 240.70329508 -50.26637835 242.93832369 -50.25561523 245.17333984 C-50.25855087 246.22240005 -50.26148651 247.27146027 -50.26451111 248.35231018 C-50.22574561 255.38145023 -50.22574561 255.38145023 -46.82202148 261.38818359 C-41.01196387 266.94563001 -37.00469879 267.51461033 -29.18449402 267.50843811 C-28.53093707 267.50929254 -27.87738012 267.51014696 -27.20401841 267.51102728 C-25.02221453 267.51266951 -22.84048816 267.50718135 -20.65869141 267.50170898 C-19.09147137 267.50142682 -17.52425121 267.50158543 -15.95703125 267.50215149 C-11.70745126 267.5024383 -7.45789953 267.49656025 -3.2083261 267.48957753 C1.2346242 267.48332475 5.67757515 267.48273867 10.12052917 267.48155212 C18.53166114 267.47844449 26.9427801 267.47023874 35.35390633 267.46020263 C46.72144336 267.44693348 58.08898394 267.441537 69.45652676 267.43570042 C87.36368708 267.42629849 105.27081997 267.40637576 123.17797852 267.38818359 C123.17797852 243.95818359 123.17797852 220.52818359 123.17797852 196.38818359 C94.35378166 196.2716654 94.35378166 196.2716654 65.52954102 196.19287109 C53.77686592 196.16912681 42.02430544 196.14119744 30.27172852 196.08642578 C21.71277853 196.0465567 13.15392144 196.02075046 4.59488118 196.01182961 C0.0629019 196.00661499 -4.46881162 195.99435965 -9.00070572 195.96526337 C-13.26721607 195.93809312 -17.53335145 195.92974182 -21.79994011 195.93575287 C-23.3648463 195.93465335 -24.92976516 195.92670885 -26.49459648 195.91136169 C-28.63431728 195.89140743 -30.77262945 195.89626268 -32.91238403 195.90716553 C-34.10887133 195.90347836 -35.30535862 195.89979118 -36.5381031 195.89599228 C-41.65209397 196.66247354 -44.72247402 199.19632958 -48.16601562 202.92895508 Z " fill="#000000" transform="translate(183.822021484375,111.61181640625)"/>
</svg>
