<svg version="1.1" id="Layer_1" xmlns="http://www.w3.org/2000/svg" xmlns:xlink="http://www.w3.org/1999/xlink" x="0px" y="0px"
	 width="100%" viewBox="0 0 1386 1796" enable-background="new 0 0 1386 1796" xml:space="preserve">
<path fill="#5C80BC" opacity="1.000000" stroke="none" 
	d="
M1.000000,600.000000 
	C1.000000,468.640839 1.000000,337.281677 1.360925,205.242661 
	C2.475626,199.044113 3.189287,193.519592 3.990325,188.007751 
	C6.991981,167.353760 13.504776,147.739502 22.534031,129.037323 
	C31.741278,109.966476 43.432228,92.527199 57.622253,76.627342 
	C69.544312,63.268742 82.770050,51.609482 97.242340,41.220413 
	C112.040848,30.597168 127.919403,21.724400 144.993317,15.642439 
	C158.897125,10.689715 173.499954,7.659393 187.862579,4.054648 
	C193.476944,2.645551 199.281876,1.995670 205.000000,0.999999 
	C530.692505,1.000000 856.385010,1.000000 1182.757324,1.360895 
	C1188.791504,2.467909 1194.147217,3.205206 1199.500122,3.961728 
	C1221.170410,7.024409 1241.624756,13.997450 1261.154175,23.662308 
	C1279.404907,32.694481 1296.041138,44.070778 1311.376953,57.615818 
	C1325.183716,69.810410 1337.545654,83.226120 1347.564453,98.487480 
	C1355.772217,110.990135 1362.774292,124.388947 1369.240356,137.902695 
	C1376.712891,153.520065 1381.220947,170.225647 1384.009644,187.348831 
	C1384.968872,193.238663 1386.001099,199.116623 1387.000000,205.000000 
	C1387.000000,467.692505 1387.000000,730.385010 1386.639160,993.757385 
	C1385.532349,999.791931 1384.841064,1005.154907 1384.031006,1010.499878 
	C1380.175415,1035.944214 1371.630371,1059.723877 1359.013672,1082.144653 
	C1344.658081,1107.655640 1326.371460,1129.718872 1303.512695,1148.100220 
	C1283.329590,1164.329834 1261.296875,1177.073120 1236.831421,1185.602173 
	C1212.578735,1194.057007 1187.733643,1198.153442 1161.937988,1198.118164 
	C993.941650,1197.888184 825.944824,1198.000000 657.948181,1198.000000 
	C655.702698,1198.000000 653.457214,1198.000000 651.000366,1198.000000 
	C651.000366,1200.995483 651.000366,1203.154419 651.000366,1205.313354 
	C651.000366,1326.310913 650.935486,1447.308716 651.061218,1568.306030 
	C651.083374,1589.636963 648.803223,1610.493164 643.226196,1631.167603 
	C637.423218,1652.680054 628.394043,1672.635498 616.757080,1691.426514 
	C602.082581,1715.122314 583.518555,1735.476074 561.187683,1752.181030 
	C544.797424,1764.442017 527.104980,1774.587402 507.935883,1781.932373 
	C493.443359,1787.485474 478.660858,1792.045776 463.191864,1794.111694 
	C457.762817,1794.836670 452.395508,1796.023926 447.000000,1797.000000 
	C298.408051,1797.000000 149.816101,1797.000000 1.000000,1797.000000 
	C1.000000,1665.640869 1.000000,1534.281738 1.360924,1402.242676 
	C2.467738,1396.208130 3.196015,1390.851074 3.962596,1385.499512 
	C7.090614,1363.662476 14.129788,1343.063477 23.917200,1323.380615 
	C32.913784,1305.288086 44.182758,1288.788574 57.653484,1273.623901 
	C70.201935,1259.497437 84.253265,1247.343140 99.709160,1236.587646 
	C114.700989,1226.155273 130.780807,1217.901123 147.867966,1211.645752 
	C169.516174,1203.720703 191.781647,1198.099731 214.954880,1198.075317 
	C357.772003,1197.924805 500.589386,1197.999878 643.406677,1198.000000 
	C645.498718,1198.000122 647.590759,1198.000000 649.999023,1198.000000 
	C649.999023,1195.122925 649.999023,1192.977905 649.999023,1190.832764 
	C649.999023,1069.346436 649.952881,947.859985 650.060181,826.373779 
	C650.072876,811.987854 648.647217,797.854858 646.109070,783.702271 
	C640.866089,754.467773 629.628845,727.752319 613.478943,703.001892 
	C600.536316,683.166626 584.915588,665.768921 566.445862,650.829651 
	C549.369141,637.017212 530.761780,625.849915 510.602692,617.360657 
	C481.179382,604.970215 450.158661,600.114014 418.453003,600.074585 
	C279.302185,599.901672 140.151031,600.000000 1.000000,600.000000 
z"/>
<path fill="#FFFFFF" opacity="1.000000" stroke="none" 
	d="
M447.468658,1797.000000 
	C452.395508,1796.023926 457.762817,1794.836670 463.191864,1794.111694 
	C478.660858,1792.045776 493.443359,1787.485474 507.935883,1781.932373 
	C527.104980,1774.587402 544.797424,1764.442017 561.187683,1752.181030 
	C583.518555,1735.476074 602.082581,1715.122314 616.757080,1691.426514 
	C628.394043,1672.635498 637.423218,1652.680054 643.226196,1631.167603 
	C648.803223,1610.493164 651.083374,1589.636963 651.061218,1568.306030 
	C650.935486,1447.308716 651.000366,1326.310913 651.000366,1205.313354 
	C651.000366,1203.154419 651.000366,1200.995483 651.000366,1198.000000 
	C653.457214,1198.000000 655.702698,1198.000000 657.948181,1198.000000 
	C825.944824,1198.000000 993.941650,1197.888184 1161.937988,1198.118164 
	C1187.733643,1198.153442 1212.578735,1194.057007 1236.831421,1185.602173 
	C1261.296875,1177.073120 1283.329590,1164.329834 1303.512695,1148.100220 
	C1326.371460,1129.718872 1344.658081,1107.655640 1359.013672,1082.144653 
	C1371.630371,1059.723877 1380.175415,1035.944214 1384.031006,1010.499878 
	C1384.841064,1005.154907 1385.532349,999.791931 1386.639160,994.218628 
	C1387.000000,1261.599487 1387.000000,1529.199097 1387.000000,1797.000000 
	C1073.979126,1797.000000 760.958252,1797.000000 447.468658,1797.000000 
z"/>
<path fill="#FFFFFF" opacity="1.000000" stroke="none" 
	d="
M1.000000,600.468628 
	C140.151031,600.000000 279.302185,599.901672 418.453003,600.074585 
	C450.158661,600.114014 481.179382,604.970215 510.602692,617.360657 
	C530.761780,625.849915 549.369141,637.017212 566.445862,650.829651 
	C584.915588,665.768921 600.536316,683.166626 613.478943,703.001892 
	C629.628845,727.752319 640.866089,754.467773 646.109070,783.702271 
	C648.647217,797.854858 650.072876,811.987854 650.060181,826.373779 
	C649.952881,947.859985 649.999023,1069.346436 649.999023,1190.832764 
	C649.999023,1192.977905 649.999023,1195.122925 649.999023,1198.000000 
	C647.590759,1198.000000 645.498718,1198.000122 643.406677,1198.000000 
	C500.589386,1197.999878 357.772003,1197.924805 214.954880,1198.075317 
	C191.781647,1198.099731 169.516174,1203.720703 147.867966,1211.645752 
	C130.780807,1217.901123 114.700989,1226.155273 99.709160,1236.587646 
	C84.253265,1247.343140 70.201935,1259.497437 57.653484,1273.623901 
	C44.182758,1288.788574 32.913784,1305.288086 23.917200,1323.380615 
	C14.129788,1343.063477 7.090614,1363.662476 3.962596,1385.499512 
	C3.196015,1390.851074 2.467738,1396.208130 1.360924,1401.781372 
	C1.000000,1134.979126 1.000000,867.958191 1.000000,600.468628 
z"/>
<path fill="#FFFFFF" opacity="1.000000" stroke="none" 
	d="
M204.531342,0.999999 
	C199.281876,1.995670 193.476944,2.645551 187.862579,4.054648 
	C173.499954,7.659393 158.897125,10.689715 144.993317,15.642439 
	C127.919403,21.724400 112.040848,30.597168 97.242340,41.220413 
	C82.770050,51.609482 69.544312,63.268742 57.622253,76.627342 
	C43.432228,92.527199 31.741278,109.966476 22.534031,129.037323 
	C13.504776,147.739502 6.991981,167.353760 3.990325,188.007751 
	C3.189287,193.519592 2.475626,199.044113 1.360925,204.781403 
	C1.000000,137.072968 1.000000,69.145927 1.000000,1.000000 
	C68.687401,1.000000 136.375046,1.000000 204.531342,0.999999 
z"/>
<path fill="#FFFFFF" opacity="1.000000" stroke="none" 
	d="
M1387.000000,204.531342 
	C1386.001099,199.116623 1384.968872,193.238663 1384.009644,187.348831 
	C1381.220947,170.225647 1376.712891,153.520065 1369.240356,137.902695 
	C1362.774292,124.388947 1355.772217,110.990135 1347.564453,98.487480 
	C1337.545654,83.226120 1325.183716,69.810410 1311.376953,57.615818 
	C1296.041138,44.070778 1279.404907,32.694481 1261.154175,23.662308 
	C1241.624756,13.997450 1221.170410,7.024409 1199.500122,3.961728 
	C1194.147217,3.205206 1188.791504,2.467909 1183.218506,1.360895 
	C1250.927002,1.000000 1318.854126,1.000000 1387.000000,1.000000 
	C1387.000000,68.687401 1387.000000,136.375046 1387.000000,204.531342 
z"/>
</svg>