<?xml version="1.0" encoding="UTF-8"?>
<svg version="1.1" xmlns="http://www.w3.org/2000/svg" width="512" height="512">
<path d="M0 0 C1.98784875 0.00313237 3.97567961 -0.02107839 5.96337891 -0.0456543 C16.19060183 -0.05077303 26.30776164 0.73589144 35.13916016 6.37817383 C35.95900391 6.88477539 36.77884766 7.39137695 37.62353516 7.91333008 C38.20619141 8.37610352 38.78884766 8.83887695 39.38916016 9.31567383 C39.38916016 9.97567383 39.38916016 10.63567383 39.38916016 11.31567383 C39.98599609 11.55543945 40.58283203 11.79520508 41.19775391 12.04223633 C43.8651309 13.59226289 44.85608394 15.06116423 46.45166016 17.69067383 C47.180625 18.84696289 47.180625 18.84696289 47.92431641 20.02661133 C52.8003213 30.97486765 53.65802083 43.34647681 55.17895508 55.11743164 C55.57857927 58.20550363 55.98990491 61.29185533 56.40283203 64.37817383 C56.66328272 66.35464617 56.92307199 68.33120582 57.18212891 70.30786133 C57.30396042 71.22356903 57.42579193 72.13927673 57.55131531 73.08273315 C57.66175674 73.94448151 57.77219818 74.80622986 57.88598633 75.6940918 C57.98352707 76.44399384 58.08106781 77.19389587 58.18156433 77.96652222 C58.42821465 80.75761395 58.42164457 83.5152056 58.38916016 86.31567383 C59.47830719 86.30679138 60.56745422 86.29790894 61.68960571 86.28875732 C71.95954716 86.20763012 82.22942349 86.14768849 92.49961281 86.10842514 C97.77950025 86.08756072 103.05912876 86.05926371 108.33886719 86.01391602 C113.43523067 85.97041783 118.53134528 85.9465281 123.6278801 85.93616486 C125.57113945 85.92878065 127.51438536 85.91436095 129.4575386 85.8927536 C132.18195151 85.86366686 134.90533933 85.85972003 137.62988281 85.86157227 C138.43117615 85.84719116 139.23246948 85.83281006 140.05804443 85.81799316 C145.29729757 85.856472 148.217163 86.87859647 152.38916016 90.31567383 C156.32906056 94.89447701 157.81417725 99.33507616 157.38916016 105.31567383 C155.77969415 110.68371635 153.09930018 114.2168975 148.38916016 117.31567383 C145.27156905 118.87446938 141.9640153 118.44519515 138.54296875 118.42919922 C137.73313034 118.42934525 136.92329193 118.42949127 136.08891296 118.42964172 C133.40511419 118.4289436 130.72138434 118.42115587 128.03759766 118.41333008 C126.17957599 118.41146554 124.32155383 118.41004181 122.46353149 118.40904236 C117.56773527 118.40521998 112.67196861 118.39539206 107.77618408 118.38433838 C102.78259684 118.37411827 97.78900484 118.36954345 92.79541016 118.36450195 C82.99331382 118.35376956 73.19123944 118.33669647 63.38916016 118.31567383 C66.4099898 141.61495582 69.45157402 164.91144721 72.51773357 188.20480919 C73.94099675 199.02094346 75.35751363 209.83788074 76.75805664 220.65698242 C77.9791118 230.08941703 79.21292077 239.52008124 80.46192676 248.94885695 C81.12252478 253.93912115 81.77680544 258.93002773 82.41580772 263.92310715 C83.01817875 268.62834971 83.637654 273.33103049 84.26998711 278.03233719 C84.49837069 279.75274357 84.7206391 281.47397527 84.93612289 283.19604492 C86.27121894 293.83115485 87.60836485 303.97843541 95.70166016 311.75317383 C108.04295883 321.12194465 125.10739244 316.96608437 139.54418945 315.97045898 C141.68416257 315.82560928 143.8241575 315.68108163 145.96417236 315.53684998 C151.75650474 315.14549918 157.54851236 314.74952232 163.34046531 314.35260057 C169.4295941 313.93600844 175.51899078 313.52336738 181.60835266 313.11019897 C191.84641605 312.41494815 202.08428048 311.71682679 212.32202148 311.0168457 C224.10093823 310.21151133 235.88011065 309.41001025 247.65944165 308.61075938 C260.26069133 307.75570073 272.86174747 306.89781568 285.46274972 306.03911924 C289.0616599 305.79405573 292.6606046 305.54950481 296.25955772 305.30507278 C301.96018605 304.91775663 307.66068043 304.52852064 313.36108398 304.13791084 C315.43278134 303.99622342 317.50451903 303.85512412 319.57630348 303.71471596 C324.29020404 303.39505886 329.0031906 303.06736369 333.71515465 302.72026443 C337.7387106 302.42442063 341.76276089 302.17682271 345.79059792 301.94694138 C347.92426682 301.80789185 350.05789623 301.66823468 352.19148254 301.52792358 C353.16434446 301.48064074 354.13720638 301.4333579 355.13954896 301.38464224 C362.72011313 300.8492716 369.94437852 298.93300748 375.33760673 293.26962793 C381.11932453 285.9884019 382.04233016 278.70344052 383.06884766 269.70825195 C383.78344342 264.28788066 384.7938528 260.64211645 388.38916016 256.31567383 C393.2273867 252.63862166 396.95535795 251.66181531 403.02587891 251.92895508 C407.84656465 252.71779456 410.53340893 255.36740896 413.70166016 258.87817383 C418.85053672 266.31543998 416.59276893 277.52348057 415.13916016 285.95239258 C412.82420303 296.33352846 409.07671268 305.04124444 402.38916016 313.31567383 C401.61572266 314.30438477 400.84228516 315.2930957 400.04541016 316.31176758 C388.16640317 330.44384414 370.29212611 334.05875792 352.86005211 335.63472748 C349.29509068 335.90494939 345.72954944 336.14169353 342.16137695 336.36547852 C340.80596796 336.45422637 339.45058843 336.54342509 338.09523582 336.63302994 C334.44092667 336.87338246 330.78624521 337.10755088 327.1314652 337.34061813 C323.22284436 337.59106504 319.31462553 337.84764299 315.40635681 338.10351562 C307.88660049 338.59491685 300.36652217 339.08118928 292.84629124 339.56526804 C279.01417601 340.45568471 265.18253243 341.35340769 251.35088682 342.251086 C247.04979754 342.53022274 242.74869203 342.80910406 238.44754791 343.08739471 C218.37729759 344.38624787 198.31022382 345.71597157 178.24864388 347.14363861 C175.01202033 347.37360756 171.77526051 347.60154028 168.53843689 347.82867432 C166.50015256 347.97180139 164.46186826 348.11492882 162.42358398 348.25805664 C160.96812558 348.360184 160.96812558 348.360184 159.48326397 348.46437454 C153.94534863 348.85440058 148.40866344 349.25823046 142.87252522 349.67267609 C139.51664424 349.92061659 136.15993329 350.15535116 132.80285835 350.38650513 C131.31267963 350.49190956 129.82287123 350.60276109 128.333601 350.7203064 C120.34239913 351.3493076 112.75021159 351.35799018 104.79296875 350.50415039 C104.05150415 350.42493221 103.31003956 350.34571404 102.54610634 350.26409531 C92.22535404 348.99230034 83.63378488 344.49514013 75.38916016 338.31567383 C74.79748047 337.9005957 74.20580078 337.48551758 73.59619141 337.05786133 C59.76129794 326.48382376 54.51517721 309.72057764 52.24730206 293.23102188 C51.81136666 289.925895 51.39144027 286.61892325 50.97119141 283.31176758 C50.64307669 280.82797406 50.31348503 278.34437533 49.98262024 275.86094666 C49.21478748 270.07857972 48.45988872 264.29461654 47.71148682 258.50970459 C46.356495 248.03924366 44.97925182 237.57174436 43.60073829 227.10435796 C42.87018579 221.55627303 42.14054332 216.00806844 41.41085815 210.45986938 C41.26187439 209.32714753 41.11289062 208.19442568 40.95939219 207.02737892 C39.42103729 195.33034696 37.88451379 183.6330748 36.34881043 171.93569446 C35.87806831 168.35049512 35.40711034 164.76532417 34.93614006 161.1801548 C33.33075128 148.95588146 31.73050574 136.73096083 30.13891602 124.50488281 C28.72843335 113.67033459 27.30900241 102.83700129 25.8789857 92.00501341 C25.12833697 86.31633716 24.38228054 80.62714396 23.64731407 74.93641853 C22.96291478 69.63769565 22.2667878 64.34065065 21.56137657 59.04468536 C21.30496237 57.10335332 21.05295647 55.16143331 20.8056221 53.21892357 C20.46851247 50.57641258 20.11584236 47.93644232 19.75907898 45.29652405 C19.66432791 44.52383543 19.56957684 43.7511468 19.47195452 42.95504338 C19.06419798 40.03796059 18.7127044 37.77264449 16.99099445 35.34091854 C14.35209973 33.65190934 11.83240554 33.9276225 8.74462891 33.90942383 C7.42785156 33.88750977 6.11107422 33.8655957 4.75439453 33.84301758 C3.36182839 33.83222629 1.96924816 33.82312689 0.57666016 33.81567383 C-2.13870631 33.80102887 -4.85286079 33.76716664 -7.56787109 33.72192383 C-8.77419189 33.71483398 -9.9805127 33.70774414 -11.22338867 33.70043945 C-16.16387117 33.13927186 -19.44942402 31.54161276 -22.86083984 27.94067383 C-26.30314398 22.77721763 -27.11851036 19.04863903 -26.34521484 12.88989258 C-25.06060959 8.38694118 -22.29586836 5.13648365 -18.61083984 2.31567383 C-12.40993409 -0.15764897 -6.5942778 -0.02167586 0 0 Z " fill="#000000" transform="translate(52.61083984375,25.684326171875)"/>
<path d="M0 0 C1.92570353 1.5754789 1.92570353 1.5754789 4.76953125 3.41015625 C4.76953125 4.07015625 4.76953125 4.73015625 4.76953125 5.41015625 C5.59904297 5.74273437 5.59904297 5.74273437 6.4453125 6.08203125 C24.65827054 16.48943584 36.50794314 45.32439557 41.76953125 64.41015625 C43.93636304 73.34947064 45.35529568 82.22165814 45.76953125 91.41015625 C45.82238281 92.291875 45.87523437 93.17359375 45.9296875 94.08203125 C46.96924793 126.08241323 34.24629675 156.02386863 12.78515625 179.2734375 C10.48863424 181.70792885 8.19515867 184.10285212 5.76953125 186.41015625 C5.145625 187.04050781 4.52171875 187.67085937 3.87890625 188.3203125 C-20.19321849 211.5327185 -52.42156813 219.16105308 -84.921875 218.7265625 C-114.8989082 217.79863724 -141.70180761 204.77879444 -163.23046875 184.41015625 C-164.05417969 183.65089844 -164.87789063 182.89164063 -165.7265625 182.109375 C-187.36034093 161.4880979 -199.8817377 131.56769952 -200.59616089 101.87335205 C-200.84004229 87.99465227 -200.50530342 74.73257204 -196.23046875 61.41015625 C-196.02147949 60.70971191 -195.81249023 60.00926758 -195.59716797 59.28759766 C-186.55968453 29.19650112 -165.20471942 2.4442214 -137.47998047 -12.53564453 C-92.62471337 -35.58442523 -39.42884797 -31.8898713 0 0 Z M-145.41796875 35.66015625 C-161.28127372 53.73577634 -169.45158236 76.7945198 -168.015625 100.80078125 C-166.39705994 120.95670226 -159.48698012 139.02107566 -146.23046875 154.41015625 C-145.699375 155.16039062 -145.16828125 155.910625 -144.62109375 156.68359375 C-144.1621875 157.25335938 -143.70328125 157.823125 -143.23046875 158.41015625 C-142.57046875 158.41015625 -141.91046875 158.41015625 -141.23046875 158.41015625 C-141.23046875 159.07015625 -141.23046875 159.73015625 -141.23046875 160.41015625 C-127.09911951 176.20652851 -104.28050727 184.05033956 -83.73046875 186.28515625 C-61.35829216 187.46116553 -38.74727043 180.36477252 -21.23046875 166.41015625 C-20.51890625 165.84941406 -19.80734375 165.28867188 -19.07421875 164.7109375 C-17.4041374 163.34239862 -15.80780996 161.88462738 -14.23046875 160.41015625 C-14.23046875 159.75015625 -14.23046875 159.09015625 -14.23046875 158.41015625 C-13.24046875 158.08015625 -12.25046875 157.75015625 -11.23046875 157.41015625 C4.35210991 141.8628323 12.47739094 118.68887791 13.01953125 97.03515625 C12.4380322 73.39893002 4.69785829 52.05530896 -11.23046875 34.41015625 C-11.86597656 33.70503906 -12.50148438 32.99992187 -13.15625 32.2734375 C-28.68789728 15.93252603 -51.53613615 6.57983458 -73.7890625 5.1875 C-101.59610925 4.51071474 -126.28343243 15.52933473 -145.41796875 35.66015625 Z " fill="#000000" transform="translate(440.23046875,53.58984375)"/>
<path d="M0 0 C8.13166941 5.90106633 12.96697142 12.13057036 15 22 C15.9229005 32.18216455 14.38884631 41.19714065 7.875 49.3125 C2.09505756 55.37956701 -4.92734221 59.63596221 -13.3203125 60.23828125 C-25.22690415 60.47054536 -33.2677575 58.53095892 -42.08984375 50.14453125 C-44.86985073 47.02341911 -46.56639874 43.90478134 -48 40 C-48.4125 38.88625 -48.825 37.7725 -49.25 36.625 C-51.11129408 27.62874529 -50.35919057 18.88119968 -45.74609375 10.8046875 C-35.52726161 -3.84137709 -15.89751002 -9.84005612 0 0 Z " fill="#000000" transform="translate(220,420)"/>
<path d="M0 0 C7.25246493 5.54971229 11.61131745 13.84954318 13.046875 22.75 C13.86912372 32.94588409 10.66533068 41.95127795 4.046875 49.75 C-4.17280272 57.54422857 -12.07235727 59.36042793 -23.26171875 59.09375 C-32.24846528 58.25688895 -38.90967492 54.37222147 -44.953125 47.75 C-51.54002765 39.2356322 -52.95027735 30.35263263 -51.953125 19.75 C-49.81867454 10.64982799 -43.79985775 2.7943282 -35.953125 -2.25 C-24.56907908 -8.016918 -10.56455169 -6.76131308 0 0 Z " fill="#000000" transform="translate(392.953125,421.25)"/>
<path d="M0 0 C5.18495639 5.99090817 4.96227351 12.81914143 4.94140625 20.3359375 C4.9466481 21.44142944 4.95188995 22.54692139 4.95729065 23.68591309 C4.96369421 26.01569786 4.96239554 28.34551504 4.95385742 30.67529297 C4.94533995 34.23073045 4.97414654 37.78456441 5.00585938 41.33984375 C5.00747143 43.60937452 5.00689378 45.87890812 5.00390625 48.1484375 C5.02075722 49.73464905 5.02075722 49.73464905 5.03794861 51.35290527 C4.94828431 60.89130025 2.07655302 65.54651957 -4.703125 72.3515625 C-5.1937442 72.84505188 -5.6843634 73.33854126 -6.18984985 73.84698486 C-7.2198919 74.87905201 -8.25366641 75.9074066 -9.29101562 76.93212891 C-10.86691794 78.4919207 -12.42610872 80.06714213 -13.984375 81.64453125 C-14.99383096 82.65200518 -16.00421694 83.65854831 -17.015625 84.6640625 C-17.92231934 85.56737305 -18.82901367 86.47068359 -19.76318359 87.40136719 C-24.71484714 91.64868783 -28.91618771 93.28132172 -35.3203125 93.0234375 C-40.12759892 92.4009112 -43.19442245 90.3043714 -46.3046875 86.7421875 C-48.85580566 83.24351117 -49.66397845 80.72827037 -49.8046875 76.4921875 C-49.84207031 75.76515625 -49.87945312 75.038125 -49.91796875 74.2890625 C-49.16359766 69.77667762 -47.27822396 66.1358973 -43.67944336 63.32763672 C-42.66829468 62.6530542 -42.66829468 62.6530542 -41.63671875 61.96484375 C-35.92075333 57.95994398 -30.57475898 53.74565607 -29.02429199 46.57965088 C-27.957989 38.65672466 -28.09922498 30.65825606 -28.2980957 22.68383789 C-28.31945587 21.8154277 -28.34081604 20.94701752 -28.36282349 20.05229187 C-28.41386485 18.40466685 -28.48389777 16.75748104 -28.57614136 15.11164856 C-28.81640918 9.3400618 -27.81141056 5.30893784 -23.80859375 0.87890625 C-23.22980469 0.40066406 -22.65101563 -0.07757813 -22.0546875 -0.5703125 C-21.19037109 -1.30701172 -21.19037109 -1.30701172 -20.30859375 -2.05859375 C-13.85336124 -6.32043543 -5.90110382 -4.13362345 0 0 Z " fill="#000000" transform="translate(374.4921875,94.2578125)"/>
</svg>
