<?xml version="1.0" encoding="UTF-8"?>
<svg version="1.1" xmlns="http://www.w3.org/2000/svg" width="512" height="512">
<path d="M0 0 C6.59049175 6.22824841 10.58429484 14.59970993 11.453125 23.60546875 C11.69910126 34.53091419 7.66070332 44.51743372 0.328125 52.625 C-1.01839154 53.96107843 -2.3806196 55.28150196 -3.7578125 56.5859375 C-5.64437865 58.39852067 -7.35736918 60.26747948 -9.0625 62.25 C-15.03470405 69.17721866 -21.27365484 75.86958517 -27.53515625 82.53515625 C-28.17251709 83.21441162 -28.80987793 83.89366699 -29.46655273 84.59350586 C-30.72302147 85.93098524 -31.98159613 87.26648988 -33.24243164 88.59985352 C-33.81469482 89.20885498 -34.38695801 89.81785645 -34.9765625 90.4453125 C-35.48783691 90.98687988 -35.99911133 91.52844727 -36.52587891 92.08642578 C-37.85459016 93.50297124 -37.85459016 93.50297124 -38.75 95.5 C-39.41 95.5 -40.07 95.5 -40.75 95.5 C-41.0078125 96.07234375 -41.265625 96.6446875 -41.53125 97.234375 C-42.86365942 99.71128995 -44.40056118 101.6341166 -46.25 103.75 C-46.8584375 104.45640625 -47.466875 105.1628125 -48.09375 105.890625 C-49.75 107.5 -49.75 107.5 -51.75 107.5 C-52.01176025 108.08394531 -52.27352051 108.66789062 -52.54321289 109.26953125 C-53.8185433 111.62668654 -55.20644821 113.25667432 -57.05859375 115.1875 C-57.71770752 115.88012939 -58.37682129 116.57275879 -59.0559082 117.28637695 C-59.7593335 118.01687256 -60.46275879 118.74736816 -61.1875 119.5 C-62.64903506 121.03458736 -64.10997057 122.56974595 -65.5703125 124.10546875 C-66.28606445 124.85618652 -67.00181641 125.6069043 -67.73925781 126.38037109 C-72.14438655 131.02404857 -76.43838835 135.76965823 -80.75 140.5 C-83.03824483 142.99964529 -85.32848099 145.49746472 -87.62182617 147.99243164 C-89.95211217 150.52946669 -92.27075932 153.07567764 -94.5703125 155.640625 C-105.41075758 167.69894957 -115.97226734 178.06762772 -132.75 180.5 C-137.88291259 180.74978267 -143.00556439 180.68859306 -148.1418457 180.62841797 C-149.68705087 180.61805449 -151.23226352 180.60876086 -152.77748108 180.60044861 C-156.09224284 180.58152516 -159.40691181 180.55739807 -162.72161293 180.52987289 C-167.98279386 180.48858132 -173.24384874 180.47354632 -178.50517273 180.46463013 C-179.39665852 180.46301467 -180.28814432 180.46139921 -181.20664483 180.4597348 C-183.02914226 180.4564977 -184.85163981 180.45332798 -186.67413747 180.45022416 C-198.90856567 180.42849378 -211.14226336 180.39074088 -223.3762207 180.27734375 C-231.64737027 180.20087557 -239.91748629 180.16787679 -248.18899029 180.18324578 C-252.55336496 180.18966976 -256.91523691 180.17516921 -261.27913857 180.10717392 C-280.09405245 179.82691234 -295.55942209 179.68489778 -310.94650459 192.08563042 C-313.54422745 194.12286333 -316.29790787 195.70594358 -319.1640625 197.33984375 C-320.48857422 198.1277832 -320.48857422 198.1277832 -321.83984375 198.93164062 C-322.67644531 199.42857422 -323.51304687 199.92550781 -324.375 200.4375 C-325.25027344 200.96150391 -326.12554687 201.48550781 -327.02734375 202.02539062 C-343.9317371 212.05533068 -343.9317371 212.05533068 -350.75 212.5 C-351.9875 212.5825 -353.225 212.665 -354.5 212.75 C-363.19831905 212.58431773 -371.30248864 209.28872042 -377.75 203.5 C-381.1268703 199.65253981 -384.20316419 195.62903733 -387.24804688 191.51660156 C-388.79519651 189.43931678 -390.3694876 187.38551875 -391.953125 185.3359375 C-395.24387339 181.07614336 -398.50154916 176.79210206 -401.75 172.5 C-402.54132324 171.45900146 -402.54132324 171.45900146 -403.34863281 170.39697266 C-404.8657535 168.39575514 -406.37201136 166.38684461 -407.875 164.375 C-408.32423828 163.78404541 -408.77347656 163.19309082 -409.23632812 162.58422852 C-415.12680545 154.62959584 -417.599564 146.39584737 -416.75 136.5 C-414.17278459 122.58740494 -405.83720399 115.34230728 -394.75 107.5 C-394.10063477 107.03722656 -393.45126953 106.57445312 -392.78222656 106.09765625 C-389.26633315 103.59429944 -385.73855894 101.10848105 -382.203125 98.6328125 C-377.71095686 95.48197337 -373.25742112 92.27953702 -368.8125 89.0625 C-367.69464111 88.25377441 -367.69464111 88.25377441 -366.55419922 87.42871094 C-364.285593 85.78655106 -362.0176706 84.1434516 -359.75 82.5 C-350.285247 75.64059836 -340.80070779 68.81681221 -331.23217773 62.1027832 C-324.89013122 57.63500836 -318.64867638 53.03494413 -312.43188477 48.39477539 C-311.69123779 47.84426514 -310.95059082 47.29375488 -310.1875 46.7265625 C-309.54683594 46.24783691 -308.90617187 45.76911133 -308.24609375 45.27587891 C-307.42238281 44.68983887 -306.59867187 44.10379883 -305.75 43.5 C-305.18074452 43.01809928 -304.61148905 42.53619856 -304.02498341 42.03969479 C-297.22431966 36.75178791 -291.28251308 36.66032472 -282.88354492 36.77124023 C-281.50268242 36.76801542 -280.12182394 36.76218996 -278.74098206 36.75398254 C-275.01314866 36.73952355 -271.28640405 36.76229624 -267.55870223 36.79284167 C-263.64057427 36.81935046 -259.72247489 36.81390748 -255.80427551 36.8127594 C-249.22309354 36.81556333 -242.64232812 36.84152583 -236.0612793 36.88256836 C-228.47963054 36.92967996 -220.89843804 36.94556426 -213.31665343 36.9433617 C-205.21099976 36.94132584 -197.10551927 36.96220754 -188.99991822 36.98970151 C-186.68043676 36.99605957 -184.36098372 36.99822016 -182.04149437 36.99941826 C-178.37804908 37.00246042 -174.71497795 37.02100508 -171.05165672 37.05091667 C-169.08600072 37.06368066 -167.12026785 37.06219256 -165.15457153 37.06008911 C-152.41693727 37.19609638 -140.00840269 39.26853015 -130.64453125 48.59765625 C-128.94982951 50.52297719 -127.34297107 52.49068422 -125.75 54.5 C-125.09 55.16 -124.43 55.82 -123.75 56.5 C-123.02635254 55.93454468 -123.02635254 55.93454468 -122.28808594 55.35766602 C-113.95302748 48.8487503 -105.61328696 42.35417273 -97.1328125 36.03515625 C-92.50210787 32.57591828 -87.90972895 29.06601545 -83.3125 25.5625 C-82.3954126 24.86374756 -81.4783252 24.16499512 -80.53344727 23.44506836 C-75.63426117 19.70911523 -70.74766888 15.95794589 -65.875 12.1875 C-63.83356777 10.62469372 -61.79189404 9.06220285 -59.75 7.5 C-59.14994141 7.03190918 -58.54988281 6.56381836 -57.93164062 6.08154297 C-40.67776024 -7.35133282 -19.18476667 -15.40546372 0 0 Z M-44.75 24.5 C-46.33030681 25.70789037 -47.91061868 26.91577419 -49.49121094 28.12329102 C-51.70932619 29.82267489 -53.91872204 31.53320184 -56.12792969 33.24414062 C-70.07620126 44.04334426 -84.07230142 54.78949472 -98.21240234 65.33642578 C-100.1522775 66.78617673 -102.08415142 68.24611498 -104.015625 69.70703125 C-106.53519588 71.60860665 -109.08807495 73.44855956 -111.671875 75.26171875 C-118.59004829 80.22725309 -122.80552038 84.25711056 -125.55859375 92.5703125 C-128.97261663 100.96545072 -137.1547927 108.05936061 -145.3828125 111.6484375 C-152.90146362 114.53707458 -159.86650424 115.62542554 -167.93359375 115.6328125 C-168.99039337 115.63499535 -168.99039337 115.63499535 -170.06854248 115.63722229 C-172.44157935 115.63949934 -174.81447676 115.6330752 -177.1875 115.625 C-178.01561188 115.62311676 -178.84372375 115.62123352 -179.69692993 115.61929321 C-185.5361222 115.60414179 -191.37506262 115.56911421 -197.21411133 115.52606201 C-199.69896786 115.50774685 -202.1838321 115.49046405 -204.66870117 115.47393799 C-213.30336141 115.41601164 -221.93754124 115.33628423 -230.57180786 115.23553467 C-233.48070254 115.20207101 -236.38954413 115.17530649 -239.29855347 115.15411377 C-243.4220026 115.12348247 -247.54479847 115.06864869 -251.66796875 115.01171875 C-252.91527771 115.00531876 -254.16258667 114.99891876 -255.44769287 114.99232483 C-256.60085999 114.97254074 -257.7540271 114.95275665 -258.94213867 114.93237305 C-259.94734055 114.92126999 -260.95254242 114.91016693 -261.98820496 114.89872742 C-265.21337335 114.4331016 -267.1141312 113.38422379 -269.75 111.5 C-272.08067577 108.28144775 -272.21741137 105.39509474 -271.75 101.5 C-268.59210526 95.92105263 -268.59210526 95.92105263 -265.75 94.5 C-264.3235781 94.40480794 -262.89281917 94.37099014 -261.46322632 94.36869812 C-260.56330963 94.36468994 -259.66339294 94.36068176 -258.73620605 94.35655212 C-257.74608521 94.35708084 -256.75596436 94.35760956 -255.73583984 94.3581543 C-254.69501251 94.35467987 -253.65418518 94.35120544 -252.58181763 94.34762573 C-250.31518465 94.3402595 -248.04854442 94.33491876 -245.78190231 94.33133507 C-242.19215773 94.32418133 -238.60255078 94.30852169 -235.0128479 94.28999329 C-224.80399494 94.23748068 -214.59521551 94.18956439 -204.38623047 94.17407227 C-198.14625986 94.16398111 -191.90663254 94.13462336 -185.66679764 94.09275246 C-183.28984806 94.08044991 -180.91284997 94.07531982 -178.5358696 94.07755089 C-175.20371763 94.07990821 -171.87254659 94.0577017 -168.54052734 94.0300293 C-167.07356415 94.03993141 -167.07356415 94.03993141 -165.57696533 94.05003357 C-158.4956656 93.95373804 -152.83588418 92.55075078 -147.69140625 87.46484375 C-147.23636719 86.79582031 -146.78132812 86.12679687 -146.3125 85.4375 C-145.60287109 84.43009766 -145.60287109 84.43009766 -144.87890625 83.40234375 C-142.52243594 79.4314059 -142.44283721 76.03065115 -142.75 71.5 C-144.49019624 66.82894693 -146.51298773 64.13636319 -150.75 61.5 C-157.66136861 59.2810792 -164.25672791 59.16658009 -171.47729492 59.11425781 C-173.36430115 59.08972534 -173.36430115 59.08972534 -175.28942871 59.06469727 C-179.43635706 59.01265107 -183.58332189 58.98168795 -187.73046875 58.953125 C-189.16653267 58.9423905 -190.60259643 58.93163547 -192.03866005 58.92086029 C-198.01718129 58.8776658 -203.99569258 58.84020076 -209.97432995 58.81761551 C-218.50102521 58.78517447 -227.02589324 58.71884933 -235.55190009 58.60481381 C-241.57089752 58.52709105 -247.58940949 58.48831307 -253.60889512 58.47777438 C-257.19322083 58.47051195 -260.77558935 58.4469694 -264.35936546 58.38156891 C-282.15102394 57.35754351 -282.15102394 57.35754351 -297.79223633 64.34863281 C-299.48025725 66.03093523 -301.13778673 67.74491469 -302.75 69.5 C-304.37420531 70.70084772 -306.02585383 71.86685133 -307.71875 72.96875 C-308.46705078 73.47148437 -309.21535156 73.97421875 -309.98632812 74.4921875 C-310.73333984 74.98976563 -311.48035156 75.48734375 -312.25 76 C-317.71490565 79.68653968 -323.0661173 83.42694931 -328.25 87.5 C-334.24410648 92.20801467 -340.49122108 96.47587461 -346.80151367 100.74731445 C-352.27814776 104.46417109 -357.60053985 108.3092682 -362.86328125 112.32421875 C-366.11763855 114.77709698 -369.42657144 117.14218047 -372.75 119.5 C-374.50529862 120.75375006 -376.2597742 122.00864515 -378.01416016 123.26367188 C-379.16979665 124.08675812 -380.3283318 124.90578992 -381.48974609 125.72070312 C-383.14730669 126.88539866 -384.7926347 128.06744304 -386.4375 129.25 C-387.39011719 129.92546875 -388.34273437 130.6009375 -389.32421875 131.296875 C-392.1966491 133.90565232 -393.53544297 135.80629099 -394.75 139.5 C-393.9114861 145.34297783 -391.18368253 149.13303553 -387.625 153.625 C-387.10873047 154.29442627 -386.59246094 154.96385254 -386.06054688 155.65356445 C-384.92284474 157.12866679 -383.78103781 158.60060981 -382.63574219 160.06982422 C-379.85697327 163.65085293 -377.12300486 167.26551625 -374.38330078 170.87646484 C-371.72092743 174.38465514 -369.0561456 177.89081353 -366.37255859 181.3828125 C-365.07042434 183.08189589 -363.78614465 184.79465588 -362.5078125 186.51171875 C-360.33247336 188.97226902 -358.20468923 189.91710187 -354.98730469 190.53662109 C-346.16372407 190.39219321 -336.48641616 181.79882808 -329.125 177.25 C-325.64776404 175.10443025 -322.16592319 172.96979498 -318.66081524 170.86986065 C-316.11164787 169.34037343 -313.60671506 167.76100758 -311.11736012 166.13634205 C-301.27697759 159.91456919 -293.65912718 158.21102856 -282.14526367 158.44995117 C-280.55485371 158.44917316 -278.96444152 158.44435958 -277.37405396 158.43588257 C-273.98456351 158.42627463 -270.59685371 158.44446661 -267.20760155 158.48549461 C-261.83884953 158.55027031 -256.47119484 158.55051162 -251.10212708 158.54304504 C-242.60851151 158.53867266 -234.11570397 158.57639516 -225.62229282 158.63261348 C-210.4105446 158.73259776 -195.19868206 158.77402487 -179.98661977 158.77935392 C-174.65884273 158.78306987 -169.33182692 158.80964388 -164.00425088 158.85543191 C-160.68447479 158.88048709 -157.3647865 158.88923124 -154.04492569 158.89419174 C-152.51594669 158.90000396 -150.98697448 158.91268722 -149.45812035 158.93307304 C-139.27923768 159.06466691 -130.42323415 158.2821561 -121.75 152.5 C-121.75 151.84 -121.75 151.18 -121.75 150.5 C-121.09 150.5 -120.43 150.5 -119.75 150.5 C-118.34937273 149.15404429 -118.34937273 149.15404429 -116.875 147.3125 C-113.66794094 143.53988073 -110.36762647 139.87841185 -107 136.25 C-105.95174044 135.11856599 -104.903564 133.98705496 -103.85546875 132.85546875 C-103.3351709 132.2939209 -102.81487305 131.73237305 -102.27880859 131.15380859 C-99.94743205 128.63181167 -97.63036456 126.09692417 -95.3125 123.5625 C-92.35966546 120.33617572 -89.3990737 117.11818449 -86.41796875 113.91796875 C-85.84941162 113.30751709 -85.28085449 112.69706543 -84.69506836 112.06811523 C-83.60715067 110.9012244 -82.51820921 109.73528672 -81.42797852 108.57055664 C-78.67405659 105.61720826 -75.97573905 102.62734343 -73.328125 99.578125 C-69.13494449 94.76047745 -64.7470465 90.13605733 -60.35546875 85.5 C-56.63520622 81.55636767 -53.01921797 77.54469275 -49.46484375 73.45117188 C-46.7122645 70.31925084 -43.85726633 67.28617585 -41 64.25 C-34.8700858 57.70810064 -28.79069456 51.12438131 -22.75 44.5 C-21.45835937 43.10201172 -21.45835937 43.10201172 -20.140625 41.67578125 C-19.33109375 40.79277344 -18.5215625 39.90976562 -17.6875 39 C-16.97464844 38.2265625 -16.26179688 37.453125 -15.52734375 36.65625 C-12.06048137 32.45029827 -11.22814423 29.1369971 -11.37890625 23.75390625 C-12.02531467 19.82782562 -13.78397251 18.03348181 -16.75 15.5 C-27.44345635 10.06028525 -36.59106092 18.12650515 -44.75 24.5 Z " fill="#000000" transform="translate(458.75,257.5)"/>
<path d="M0 0 C4.7238698 -0.28477229 8.64476325 -2.71335889 12.75 -4.875 C29.7991098 -13.62006755 50.79639804 -16.84680105 69.484375 -10.97265625 C70.31453125 -10.65167969 71.1446875 -10.33070312 72 -10 C73.36898437 -9.47212891 73.36898437 -9.47212891 74.765625 -8.93359375 C92.99132147 -1.2207641 108.20730663 11.75345349 116.375 30 C117.28137459 32.32132603 118.15877561 34.65427815 119 37 C119.3403125 37.89460938 119.680625 38.78921875 120.03125 39.7109375 C124.80897628 54.79616584 123.368198 73.31275201 118 88 C117.66097656 89.01707031 117.32195312 90.03414063 116.97265625 91.08203125 C110.93490839 107.47634307 98.1132567 119.4887171 86.00390625 131.52734375 C84.36244962 133.17150229 82.72158652 134.81625358 81.08128357 136.46156311 C77.66277093 139.88593285 74.2372322 143.30306593 70.80639648 146.71508789 C66.43093769 151.06770579 62.07376093 155.43811493 57.72168064 159.81409359 C54.34441584 163.20587256 50.95760777 166.58799352 47.56791496 169.9673481 C45.95798958 171.57462456 44.35097625 173.18482383 42.74707222 174.79810905 C19.44650661 198.20507405 19.44650661 198.20507405 2.25 198.375 C-13.45132834 198.28983411 -23.06106995 190.2344627 -33.76367188 179.54272461 C-34.48204727 178.83267273 -35.20042267 178.12262085 -35.94056702 177.39105225 C-38.288672 175.06683146 -40.62924562 172.7352195 -42.96875 170.40234375 C-44.61577654 168.76430013 -46.26287248 167.12632629 -47.91003418 165.48841858 C-51.3530733 162.06181365 -54.79174398 158.63088869 -58.22802734 155.19750977 C-62.60360489 150.827309 -66.99510098 146.47349012 -71.39076996 142.12351131 C-74.79679166 138.74742327 -78.19131648 135.35994775 -81.582901 131.96936226 C-83.1957178 130.36071558 -84.81260163 128.75613461 -86.43382263 127.15595818 C-98.8786235 114.85992494 -109.28979121 102.88430363 -115 86 C-115.31839844 85.08992188 -115.63679687 84.17984375 -115.96484375 83.2421875 C-120.38335789 67.97082525 -120.20951424 48.67703365 -114 34 C-113.7421875 33.36835937 -113.484375 32.73671875 -113.21875 32.0859375 C-105.0738913 12.55335968 -90.31425448 -0.55661007 -71 -9 C-47.49371094 -18.22946319 -20.65047752 -13.76698502 0 0 Z M-85 28 C-94.63324382 40.58219601 -97.85948492 54.4192617 -96 70 C-92.47947848 89.48021905 -80.17468542 101.42145525 -66.6484375 114.84765625 C-64.94340374 116.55284518 -63.23903832 118.25870261 -61.53530884 119.9651947 C-57.97939103 123.52249086 -54.41665276 127.07276353 -50.84863281 130.61791992 C-46.27581518 135.16223598 -41.71886246 139.72208303 -37.1666317 144.28701115 C-33.65670112 147.80389103 -30.13944905 151.3133721 -26.61983109 154.82055473 C-24.93604782 156.49982464 -23.25434761 158.18118589 -21.57477951 159.86467171 C-19.23208705 162.2102719 -16.8799329 164.54594687 -14.52490234 166.87915039 C-13.48835258 167.92245262 -13.48835258 167.92245262 -12.43086243 168.98683167 C-7.22443936 174.11326102 -3.6626294 176.16300989 3.83984375 176.36328125 C10.58183516 175.22945629 14.86172834 170.56816454 19.45483398 165.93334961 C20.17598389 165.21745667 20.89713379 164.50156372 21.64013672 163.76397705 C24.0163789 161.40091103 26.38150912 159.02707062 28.74609375 156.65234375 C30.40182934 154.99863045 32.05800994 153.34536258 33.71461487 151.69252014 C37.18516965 148.22638626 40.65024693 144.75489085 44.11157227 141.27954102 C48.53065579 136.84341967 52.96299868 132.4208316 57.39959621 128.00223446 C60.82386316 124.5888572 64.24089189 121.16830558 67.65583992 117.74560738 C69.28618742 116.1132694 70.91873655 114.48312712 72.55358696 112.855299 C87.37603399 98.60978895 87.37603399 98.60978895 96.875 80.6875 C97.26429688 79.53636719 97.65359375 78.38523437 98.0546875 77.19921875 C102.12004652 63.44083431 101.06541452 48.84212666 94.4921875 36.0703125 C86.62114528 22.85428346 75.53363213 13.86203355 60.6875 9.6953125 C46.12004674 6.94848339 32.06207504 8.9924919 19.171875 16.49609375 C16.62580636 18.25910891 14.38619731 20.26663607 12.0625 22.3125 C7.96942371 25.60585215 5.03266666 27.34902887 -0.29296875 26.9296875 C-5.22651709 25.23533756 -9.01357608 21.77771527 -12.96875 18.48046875 C-16.49555543 15.5944875 -19.7487654 13.58166012 -24 12 C-24.75796875 11.70480469 -25.5159375 11.40960938 -26.296875 11.10546875 C-47.77472236 3.97872849 -70.48566274 10.93824844 -85 28 Z " fill="#000000" transform="translate(254,58)"/>
</svg>
