<?xml version="1.0" encoding="UTF-8"?>
<svg version="1.1" xmlns="http://www.w3.org/2000/svg" width="512" height="512">
<path d="M0 0 C1.0009542 0.48537955 2.0019084 0.97075911 3.03319454 1.47084713 C6.21377505 3.0167488 9.38887716 4.57342302 12.56274414 6.13305664 C14.06811674 6.87091337 14.06811674 6.87091337 15.60390091 7.6236763 C28.82624116 14.10987945 42.00724503 20.68010029 55.188447 27.24940586 C61.89285576 30.59062735 68.60121363 33.9236336 75.31500393 37.24596554 C80.68147272 39.90253908 86.04117124 42.57250859 91.39875603 45.24696159 C93.64868073 46.36768076 95.90063539 47.48433537 98.15475655 48.59659004 C122.84388298 60.78740318 142.35294151 73.30182399 151.68774414 100.39868164 C154.80245508 111.83925452 154.71217135 123.71694698 154.70800781 135.48852539 C154.71100838 136.88639921 154.71441293 138.28427221 154.71818542 139.68214417 C154.72694141 143.44505763 154.72936005 147.2079483 154.73000121 150.97087097 C154.73071686 153.33365102 154.73286087 155.69642546 154.73549843 158.0592041 C154.74472623 166.3362667 154.74883681 174.61331329 154.74804688 182.89038086 C154.74744776 190.54967689 154.75797348 198.20890212 154.77379054 205.86818027 C154.78696458 212.4886409 154.79222663 219.10907868 154.79159147 225.72955227 C154.79133923 229.66367021 154.79403557 233.5977252 154.80476952 237.53182983 C154.91577641 281.25884001 154.91577641 281.25884001 150.00024414 296.32055664 C149.61388794 297.54379639 149.61388794 297.54379639 149.21972656 298.79174805 C144.39477386 313.30743592 136.59902109 325.67762288 126.56274414 337.13305664 C125.84602539 337.95161133 125.12930664 338.77016602 124.39086914 339.61352539 C104.91064671 360.30210748 77.58719965 371.41866538 49.4440918 372.2722168 C45.55992705 372.36845362 41.6767509 372.40884191 37.79150391 372.42822266 C36.17520445 372.43981781 34.55894547 372.46038652 32.94287109 372.48974609 C16.07093156 372.79477358 16.07093156 372.79477358 9.56274414 368.13305664 C7.72290039 366.35180664 7.72290039 366.35180664 6.62524414 364.63305664 C6.2449707 364.06586914 5.86469727 363.49868164 5.47290039 362.91430664 C3.2596048 358.58270669 3.41743287 354.16942979 3.42089844 349.40209961 C3.41742401 348.62753922 3.41394958 347.85297882 3.41036987 347.0549469 C3.40302727 345.37494496 3.39767393 343.69493342 3.39407921 342.01491928 C3.38689101 339.34858174 3.37120511 336.68242581 3.35273743 334.0161438 C3.30039133 326.43567454 3.25234488 318.85530417 3.23681641 311.2746582 C3.22668806 306.63383189 3.19723924 301.99346261 3.1554966 297.35281754 C3.14324836 295.59156896 3.13805396 293.83025565 3.14029503 292.06896591 C3.15273418 279.09757114 2.27106861 268.95627379 -7.10131836 259.11352539 C-13.3431411 253.82154524 -21.24235578 250.89077264 -29.43725586 251.13305664 C-39.56936908 252.04831885 -47.1448321 256.08487163 -53.83178711 263.67993164 C-59.64819845 272.56729496 -60.00305909 280.67722232 -59.95367622 291.05673599 C-59.9409505 293.74812366 -59.9524216 296.43850015 -59.9697113 299.12985229 C-59.99630861 303.87166406 -60.00201073 308.61322425 -60.00061035 313.35510254 C-59.99837467 320.95035821 -60.01260536 328.5453036 -60.05619621 336.14043808 C-60.06599515 338.78333833 -60.05734013 341.42574435 -60.04750061 344.06863403 C-60.05364717 345.69704507 -60.06055969 347.32545346 -60.06835938 348.95385742 C-60.06064011 349.68131165 -60.05292084 350.40876587 -60.04496765 351.15826416 C-60.10750856 357.51255096 -61.63994388 361.99571267 -65.74975586 366.88305664 C-71.02719926 371.30138135 -75.54656253 372.58486483 -82.33569336 372.49633789 C-83.08831451 372.4968364 -83.84093567 372.4973349 -84.61636353 372.49784851 C-86.20821778 372.49551598 -87.80007627 372.485836 -89.3918457 372.46923828 C-91.7706193 372.44596402 -94.14824339 372.44864425 -96.52709961 372.45532227 C-128.44936393 372.39882709 -156.93812017 363.5893151 -180.12475586 341.00805664 C-209.01055228 311.7034358 -211.7706785 275.83325853 -211.70590687 236.74743605 C-211.7007729 232.66972572 -211.70555835 228.59202351 -211.7086792 224.51431274 C-211.7122968 217.67432005 -211.70757733 210.83437083 -211.69799805 203.99438477 C-211.68710904 196.12924863 -211.69065128 188.26421619 -211.70165086 180.39908254 C-211.71077667 173.59681839 -211.71198358 166.79458514 -211.70677352 159.99231684 C-211.70368384 155.95111243 -211.70316064 151.90995648 -211.7098465 147.86875534 C-211.71569746 144.06822631 -211.71148424 140.26782884 -211.70005798 136.46731377 C-211.69622712 134.43806505 -211.70202956 132.40880498 -211.70831299 130.37956238 C-211.61048248 108.70128205 -207.56462402 87.6407017 -191.8848114 71.45375061 C-179.58386929 59.79039029 -163.8907389 52.93610883 -148.87105918 45.49637914 C-145.4013075 43.77485296 -141.93802715 42.04039438 -138.47383118 40.307724 C-132.66744292 37.40592601 -126.85652462 34.51337854 -121.04248047 31.62695312 C-114.34091624 28.29982557 -107.64576095 24.96008737 -100.95407265 21.61314589 C-93.78846902 18.02932817 -86.6183237 14.45467251 -79.44681573 10.88268733 C-77.39578402 9.86035316 -75.34559896 8.83633856 -73.29559898 7.81193733 C-70.06842901 6.19986819 -66.83824128 4.59400575 -63.60569954 2.99273682 C-61.86773637 2.13016351 -60.1326315 1.26183846 -58.39764404 0.39329529 C-38.05069199 -9.65648381 -20.5129228 -10.07446639 0 0 Z M-54.26171875 30.90795898 C-55.39964371 31.474366 -56.53756866 32.04077301 -57.7099762 32.62434387 C-60.80269663 34.1640668 -63.8928839 35.70880679 -66.98244405 37.25485945 C-69.5735073 38.55092968 -72.16576406 39.84460322 -74.7579965 41.13833296 C-80.87794739 44.19278121 -86.9957777 47.25144605 -93.11230469 50.31274414 C-99.39861004 53.45891787 -105.68855379 56.59772532 -111.98031813 59.73296583 C-117.40614931 62.43704543 -122.82962212 65.14581346 -128.25127405 67.85826266 C-131.47892399 69.47298935 -134.70741562 71.08596878 -137.93821907 72.6943779 C-141.54297044 74.48924149 -145.14275201 76.29386477 -148.7421875 78.09936523 C-149.79750671 78.62320297 -150.85282593 79.14704071 -151.94012451 79.68675232 C-165.67563011 86.60312545 -174.91227498 93.7517147 -180.74584961 108.45336914 C-182.93882165 116.95268452 -182.58616685 125.80932184 -182.58251953 134.51855469 C-182.58551692 135.95527737 -182.58892078 137.39199925 -182.59269714 138.82872009 C-182.60148357 142.70917304 -182.60387302 146.5896039 -182.60451293 150.47006583 C-182.60522662 152.90162936 -182.60736698 155.33318738 -182.61001015 157.76474953 C-182.61924672 166.26830015 -182.62334726 174.77183515 -182.62255859 183.27539062 C-182.62195866 191.1682058 -182.6324983 199.06095246 -182.64830226 206.95375031 C-182.66143398 213.75749456 -182.66674012 220.56121656 -182.66610318 227.36497337 C-182.6658498 231.41631569 -182.66861206 235.46759707 -182.67928123 239.51892662 C-182.68905729 243.33491422 -182.68897726 247.15078381 -182.6817646 250.96677589 C-182.68024262 253.01081549 -182.68849906 255.05485533 -182.69720459 257.09887695 C-182.61316368 282.17464651 -175.61513604 302.99801284 -158.26928711 321.43774414 C-142.39479638 336.80701657 -121.73190157 343.37936789 -99.99975586 343.19555664 C-98.98204102 343.19104492 -97.96432617 343.1865332 -96.91577148 343.18188477 C-94.42287077 343.17018101 -91.93009512 343.15378512 -89.43725586 343.13305664 C-89.4284565 341.87637177 -89.4284565 341.87637177 -89.41947937 340.59429932 C-89.36127847 332.65113768 -89.28904792 324.70824908 -89.20154095 316.76535416 C-89.15704776 312.68302685 -89.11774705 308.60079451 -89.09082031 304.51831055 C-89.06457497 300.56938734 -89.02402772 296.62083387 -88.9740696 292.67214203 C-88.95754292 291.17492058 -88.94594114 289.6776354 -88.93964195 288.180336 C-88.85501524 269.89304878 -84.78045665 253.73964867 -71.74975586 240.31274414 C-58.84238143 228.14667162 -43.9917356 222.60508662 -26.30249023 222.70922852 C-8.87708841 223.25239605 5.67692834 230.7218963 17.68774414 243.19555664 C29.57614319 257.17213756 31.99836601 273.52900567 32.07446289 291.27758789 C32.09135566 292.78359901 32.10951186 294.28959643 32.12886047 295.795578 C32.17586873 299.71297925 32.20599312 303.63032497 32.2322998 307.5479126 C32.26235709 311.56403575 32.30879916 315.57996821 32.35375977 319.59594727 C32.43923142 327.44155471 32.50682249 335.28717691 32.56274414 343.13305664 C36.0718335 343.16786931 39.5808777 343.18875529 43.09008789 343.20727539 C44.07601929 343.21722534 45.06195068 343.22717529 46.07775879 343.23742676 C67.10543627 343.32054011 86.93740644 335.09062966 102.22290039 320.59790039 C121.62808666 300.15604306 125.71785231 277.04704623 125.70800781 249.96777344 C125.71100949 248.60267039 125.71441429 247.23756818 125.71818542 245.87246704 C125.72692581 242.20491952 125.72935924 238.53739541 125.73000121 234.86983848 C125.73071726 232.56822521 125.73286192 230.2666177 125.73549843 227.96500587 C125.74471797 219.90651707 125.74883747 211.84804468 125.74804688 203.78955078 C125.74744658 196.32385433 125.75799772 188.85823024 125.77379054 181.39255208 C125.78693929 174.94283295 125.79222774 168.49313727 125.79159147 162.04340488 C125.79133868 158.20891532 125.79406681 154.37449025 125.80476952 150.54001427 C127.26025352 119.148479 127.26025352 119.148479 114.06274414 91.94555664 C102.07394752 81.10375713 85.16591093 74.7852428 70.85118055 67.64294934 C67.64881331 66.04432932 64.44842833 64.44174893 61.24771118 62.83982849 C55.88849621 60.15841368 50.52762444 57.48033468 45.16577148 54.80419922 C38.97265053 51.71310871 32.78246474 48.61620034 26.59372461 45.51634938 C21.25646641 42.84318377 15.9176573 40.17313578 10.57753623 37.50569385 C7.39768598 35.91732468 4.21838054 34.32789062 1.04047775 32.73562813 C-2.48969541 30.96711839 -6.0231113 29.20515328 -9.55688477 27.44384766 C-10.6051947 26.91766846 -11.65350464 26.39148926 -12.73358154 25.84936523 C-13.69488983 25.37153091 -14.65619812 24.89369659 -15.64663696 24.40138245 C-16.89696685 23.77678304 -16.89696685 23.77678304 -18.17255592 23.13956547 C-31.12340845 17.38377099 -42.76177685 25.14446374 -54.26171875 30.90795898 Z " fill="#000000" transform="translate(284.437255859375,73.866943359375)"/>
</svg>
