<?xml version="1.0" encoding="UTF-8"?>
<svg version="1.1" xmlns="http://www.w3.org/2000/svg" width="512" height="512">
<path d="M0 0 C1.97139534 -0.00135273 3.94279035 -0.00329827 5.91418457 -0.00579834 C10.0152509 -0.00872107 14.11622919 -0.00454501 18.21728516 0.00488281 C23.42100283 0.01627551 28.62451404 0.00970057 33.82822418 -0.00226212 C37.88992817 -0.00955852 41.95158483 -0.00715748 46.01329041 -0.00200653 C47.92984544 -0.00069143 49.84640505 -0.00224074 51.76295471 -0.00696564 C61.14159901 -0.02502438 70.42782455 0.13563682 79.75976562 1.13769531 C80.46729729 1.2125201 81.17482895 1.28734489 81.90380096 1.3644371 C89.58231692 2.29081046 96.72807894 4.62563619 103.96875 7.265625 C104.99226562 7.62398438 106.01578125 7.98234375 107.0703125 8.3515625 C132.4615654 18.0016074 153.65721289 38.796266 165.08984375 63.28857422 C166.60552766 66.69802097 167.99043721 70.14001232 169.28125 73.640625 C169.51175049 74.25075439 169.74225098 74.86088379 169.97973633 75.48950195 C174.69570249 89.14207679 175.42840143 103.34904368 175.3671875 117.64453125 C175.36921739 119.35310489 175.37213634 121.06167768 175.37588501 122.77024841 C175.38026428 126.32079459 175.37402068 129.87111169 175.35986328 133.42163086 C175.34276087 137.92506147 175.35264754 142.4279558 175.37058067 146.93136692 C175.38152765 150.45000602 175.37792299 153.96852223 175.3701973 157.48716545 C175.36822595 159.14580286 175.37054378 160.80445222 175.37763596 162.46307564 C175.48313066 194.04467439 164.33004853 221.03945067 142.71875 243.953125 C116.99858465 268.53118709 85.6115842 275.8055394 51 275.62890625 C48.94274903 275.62838544 46.88549756 275.62891163 44.82824707 275.63041687 C40.54899513 275.63032796 36.26993476 275.62006708 31.99072266 275.60180664 C26.56180058 275.57912298 21.1331572 275.57858457 15.70420074 275.58532429 C11.46573498 275.58869843 7.2273304 275.58197007 2.98887634 275.57219505 C0.98941876 275.56840186 -1.01004569 275.56716977 -3.00950623 275.5687809 C-13.73319117 275.57022652 -24.23226691 275.34208584 -34.85071564 273.698102 C-41.34544774 272.81376066 -44.82154243 274.56718505 -50.01953125 278.25 C-59.59607472 284.65920419 -71.85329698 287.33292086 -83.03125 289.265625 C-84.330625 289.4925 -85.63 289.719375 -86.96875 289.953125 C-97.41305228 291.02433549 -112.69850836 292.48745276 -121.7734375 286.4375 C-125.03195726 283.30300694 -126.32456626 280.59583638 -126.4140625 276.07421875 C-126.28635201 270.77423329 -124.3634764 266.93597376 -121.90625 262.328125 C-118.6633942 255.8858816 -115.83898346 249.49880583 -113.59375 242.640625 C-113.35962402 241.93172119 -113.12549805 241.22281738 -112.88427734 240.49243164 C-112.44710401 239.11912663 -112.02910554 237.73955307 -111.6315918 236.35424805 C-111.21688487 234.91145921 -110.75961648 233.48047104 -110.26879883 232.06176758 C-108.92767466 227.63658527 -108.75976782 224.98795509 -110.84765625 220.79296875 C-111.74158964 219.25040075 -112.65807316 217.72073555 -113.59375 216.203125 C-123.89074152 198.14965831 -126.34843715 180.19915125 -126.40234375 159.67578125 C-126.41133979 157.8823592 -126.42046201 156.08893778 -126.42970276 154.29551697 C-126.44610735 150.54782303 -126.45387645 146.80021746 -126.45678711 143.05249023 C-126.46108201 139.25207483 -126.48185955 135.45234112 -126.51831055 131.65209961 C-126.87277607 94.01712733 -123.07234545 62.42752597 -95.8359375 34.109375 C-94.91039063 33.1709375 -93.98484375 32.2325 -93.03125 31.265625 C-92.16757813 30.3890625 -91.30390625 29.5125 -90.4140625 28.609375 C-78.48829823 17.14365505 -63.66899464 9.50184897 -47.96875 4.578125 C-47.3514502 4.37541992 -46.73415039 4.17271484 -46.09814453 3.96386719 C-31.32381286 -0.40749595 -15.25395523 -0.03760581 0 0 Z M-53.03125 35.265625 C-54.39056641 35.96945313 -54.39056641 35.96945313 -55.77734375 36.6875 C-75.28485481 47.34179733 -89.42676145 63.96673596 -96.3828125 85.1875 C-98.63212687 92.85782383 -100.14597396 100.08969175 -100.19238281 108.1027832 C-100.19734772 108.75910233 -100.20231262 109.41542145 -100.20742798 110.09162903 C-100.22195383 112.24989912 -100.22883993 114.40809542 -100.234375 116.56640625 C-100.23720238 117.31196463 -100.24002975 118.057523 -100.24294281 118.82567406 C-100.25790608 122.78100305 -100.26715025 126.73629592 -100.27148438 130.69165039 C-100.27692652 134.72780563 -100.30087138 138.76361624 -100.32945633 142.7996645 C-100.34832665 145.94431939 -100.35330132 149.08889586 -100.35482025 152.23360252 C-100.35779906 153.71838425 -100.3656602 155.20316627 -100.37900543 156.68789101 C-100.54493139 176.58866731 -96.98737644 194.32459217 -85.8984375 211.1953125 C-81.55226643 218.34194527 -80.54722353 221.72549062 -82.22607422 229.9921875 C-83.62000019 235.65918551 -85.30920045 241.21085538 -87.09375 246.765625 C-87.81454105 249.04664162 -88.53462438 251.32788203 -89.25390625 253.609375 C-89.57109619 254.60130859 -89.88828613 255.59324219 -90.21508789 256.61523438 C-90.8947457 258.82234332 -91.50056454 261.01895661 -92.03125 263.265625 C-76.85169794 261.75806675 -64.59387909 256.74007649 -52.03125 248.265625 C-45.66868098 244.10654308 -40.05549123 245.79626842 -33.03125 247.265625 C-27.37724785 248.23939723 -21.91927322 248.41962383 -16.203125 248.42675781 C-14.76006737 248.43420517 -14.76006737 248.43420517 -13.28785706 248.44180298 C-10.11898062 248.45635323 -6.9501543 248.46321617 -3.78125 248.46875 C-2.69210297 248.47157738 -1.60295593 248.47440475 -0.48080444 248.47731781 C5.28770183 248.4922849 11.05618327 248.50152887 16.82470703 248.50585938 C22.74762948 248.51132734 28.67032011 248.53532723 34.59317017 248.56383133 C39.17804601 248.58257334 43.76286743 248.58766952 48.34777832 248.58919525 C50.52918763 248.59219838 52.71059654 248.6001465 54.89196777 248.61338043 C83.56553709 248.77486254 105.18949703 242.11146676 126.53125 222.140625 C135.97591039 212.37891771 142.45363162 200.35391424 145.96875 187.265625 C146.23872803 186.28754883 146.50870605 185.30947266 146.78686523 184.30175781 C150.00369827 170.38527245 149.38221347 156.0911707 149.2913208 141.89520264 C149.27791616 139.06064985 149.28315522 136.22625472 149.28817749 133.39168453 C149.32910457 103.01467536 147.32551036 74.69041419 124.8359375 52.06640625 C123.8814813 51.13151112 122.92587957 50.19778299 121.96875 49.265625 C120.95167969 48.23501953 120.95167969 48.23501953 119.9140625 47.18359375 C101.24367465 29.43470573 77.11680691 26.78816947 52.66796875 26.83203125 C50.41941675 26.8274591 48.17086614 26.82215049 45.9223175 26.81614685 C41.22818293 26.80725569 36.53421884 26.80959259 31.84008789 26.81958008 C25.86923852 26.83105545 19.89898187 26.81085898 13.92821026 26.78166294 C9.28919326 26.7631826 4.65031515 26.76361699 0.01127052 26.76930046 C-2.18801898 26.76945228 -4.38731876 26.76352539 -6.58657265 26.75100899 C-22.6745051 26.67233686 -38.57121826 27.39264946 -53.03125 35.265625 Z " fill="#000000" transform="translate(206.03125,78.734375)"/>
<path d="M0 0 C4.95130477 3.43222667 7.22338015 6.57954728 9.1875 12.3125 C9.42146484 12.91900391 9.65542969 13.52550781 9.89648438 14.15039062 C14.73474005 27.5455613 15.46704776 41.29047734 15.43359375 55.359375 C15.43817464 57.0822164 15.44348572 58.805056 15.44947815 60.52789307 C15.45833694 64.11470017 15.45607109 67.70128379 15.44604492 71.28808594 C15.43686235 74.9224349 15.44376697 78.55614109 15.46655273 82.19042969 C15.79707114 135.15564522 15.79707114 135.15564522 0.875 158.4375 C-1.92884104 163.53031747 -2.35526932 167.07399004 -0.875 172.625 C-0.01546885 175.45578709 0.98251639 178.22276009 2 181 C2.54906219 182.6177489 3.09586993 184.23626441 3.640625 185.85546875 C6.08326824 192.92792682 8.61542424 199.66451734 12.4375 206.125 C15.15465082 210.82355839 16.20394143 214.62937431 15 220 C13.09305174 224.11900825 11.67163261 225.63250291 7.6875 227.8125 C-14.56279067 234.97784784 -41.66085049 228.05782119 -62 218 C-62.56847467 217.58596043 -63.13694935 217.17192085 -63.72265053 216.74533463 C-68.14577042 213.56537767 -70.97705466 212.4714173 -76.38096046 213.2584877 C-77.13873472 213.39458324 -77.89650898 213.53067879 -78.67724609 213.67089844 C-80.36398802 213.9092467 -82.05195426 214.13905513 -83.74090576 214.36120605 C-84.60826103 214.47647141 -85.4756163 214.59173676 -86.36925507 214.710495 C-90.65776372 215.18243156 -94.92960558 215.23999074 -99.24072266 215.25878906 C-100.11495062 215.26315853 -100.98917858 215.267528 -101.8898983 215.27202988 C-104.64801597 215.27801689 -107.40594899 215.27243301 -110.1640625 215.265625 C-112.13642423 215.26697793 -114.10878563 215.26892363 -116.08114624 215.27142334 C-120.18043242 215.27434376 -124.27963045 215.27017676 -128.37890625 215.26074219 C-133.5838146 215.24933439 -138.78851686 215.25593543 -143.99341774 215.26788712 C-148.05507916 215.27517689 -152.11669318 215.2727857 -156.17835617 215.26763153 C-158.09573772 215.26631541 -160.01312384 215.26786952 -161.93050003 215.27259064 C-187.24639741 215.32128995 -210.79197543 212.48798008 -233 199.5 C-233.63558838 199.13237549 -234.27117676 198.76475098 -234.92602539 198.38598633 C-239.43110845 195.6573689 -242.63274974 192.73450051 -245 188 C-245.43281664 183.76339098 -245.44858706 180.08605289 -243.8125 176.125 C-240.57960249 172.33470636 -237.62222998 170.78818364 -232.6875 170.25 C-225.18062754 170.42953656 -219.06385652 175.19854875 -212.82128906 178.94042969 C-197.74489483 187.71141507 -180.7445143 187.45288042 -163.8828125 187.3984375 C-161.65428574 187.40046352 -159.42575963 187.40337932 -157.19723511 187.40713501 C-152.5459761 187.41153536 -147.89489099 187.40520269 -143.24365234 187.39111328 C-137.32435274 187.37404307 -131.40546201 187.38386385 -125.48617744 187.40183067 C-120.88924156 187.41274776 -116.29240023 187.40918574 -111.69546127 187.4014473 C-109.5148908 187.39946608 -107.33431133 187.40183019 -105.15375137 187.40888596 C-93.86065983 187.43741337 -83.19516808 187.13822514 -72.16012573 184.59951782 C-65.49625166 183.33529241 -61.0493977 185.13551647 -55.5625 188.8125 C-54.81484375 189.34230469 -54.0671875 189.87210938 -53.296875 190.41796875 C-43.39684063 197.23686998 -31.83007613 200.49681371 -20 202 C-20.2266333 201.30551758 -20.4532666 200.61103516 -20.68676758 199.89550781 C-21.73288478 196.68169071 -22.77271392 193.46587077 -23.8125 190.25 C-24.16892578 189.15816406 -24.52535156 188.06632813 -24.89257812 186.94140625 C-32.77330951 162.50390892 -32.77330951 162.50390892 -29.04882812 155.11230469 C-27.85045093 153.14498564 -26.56953597 151.2629624 -25.25 149.375 C-14.52526047 133.07020188 -11.49998771 114.94134727 -11.63671875 95.7109375 C-11.63724011 94.31002808 -11.6367118 92.90911794 -11.63520813 91.50820923 C-11.63529678 88.6023638 -11.64550426 85.69680201 -11.66381836 82.79101562 C-11.68654422 79.10911969 -11.68702996 75.42763438 -11.68030071 71.74568748 C-11.67692395 68.86278783 -11.68365897 65.97997796 -11.69342995 63.09709549 C-11.6990234 61.09341423 -11.69786237 59.08971763 -11.69645691 57.08602905 C-11.78384356 45.63879304 -12.71758054 34.38741494 -16.625 23.5625 C-18.81481182 17.44209899 -19.99613528 12.17518119 -18 5.8125 C-13.82579348 -0.05747791 -6.89631773 -2.84505884 0 0 Z " fill="#000000" transform="translate(417,203)"/>
<path d="M0 0 C8.28922464 7.51992305 14.08073757 18.78758184 14.71875 29.94140625 C15.19771827 45.54098692 11.83204856 57.39692619 1.375 69.375 C-0.39146181 70.78869596 -2.20693153 72.1429772 -4.0625 73.4375 C-12.49305839 79.0030383 -12.49305839 79.0030383 -17.625 87.375 C-17.94093374 90.16436236 -18.13006007 92.94948422 -18.3203125 95.75 C-18.81064516 99.97440446 -20.45023746 102.95549527 -23.125 106.1875 C-26.63720431 108.96799508 -30.83945373 108.7663304 -35.11328125 108.72265625 C-39.29352267 108.14405363 -40.8391028 106.50913435 -43.625 103.375 C-47.429771 95.47781209 -46.00749019 86.61930203 -43.72265625 78.42578125 C-39.35021864 66.27320555 -31.9572672 58.7939824 -21.3125 51.9375 C-16.35542565 48.5454118 -14.05877154 45.20095899 -12.625 39.375 C-11.50588985 33.17227246 -13.10359863 27.55689958 -16.625 22.375 C-21.00391143 17.8664802 -25.36265757 15.9910319 -31.625 15.6875 C-37.53566829 16.04138715 -42.19521001 17.33553987 -46.625 21.375 C-50.58955775 26.86513512 -52.00127571 32.60222083 -53.10546875 39.17578125 C-54.03466277 43.10913639 -56.22832113 45.32749084 -59.375 47.6875 C-64.20730125 49.16403649 -68.28113577 48.85676265 -72.9375 47.1875 C-76.00547829 45.11839836 -77.01648308 43.68447734 -78.625 40.375 C-80.2826507 28.41303411 -77.35646549 17.20838083 -70.31640625 7.46875 C-62.4037757 -2.32609983 -53.09190197 -8.25827451 -40.875 -11.3125 C-25.5999983 -12.78125016 -12.25495009 -9.43522706 0 0 Z " fill="#000000" transform="translate(262.625,140.625)"/>
<path d="M0 0 C3.23942659 1.61012919 5.19394994 3.93747947 7.375 6.8125 C8.84642784 11.96249742 8.70719826 15.66137471 6.25 20.3125 C3.54851816 23.53926998 1.64416453 25.70196413 -2.5859375 26.46875 C-11.04558011 26.56353591 -11.04558011 26.56353591 -14.5625 23.75 C-18.36993704 19.45443001 -19.47456341 16.94396795 -19.3203125 11.02734375 C-18.66641525 6.88865261 -16.21450125 4.10146325 -13.1953125 1.36328125 C-9.12598598 -1.16375604 -4.61037852 -0.72058015 0 0 Z " fill="#000000" transform="translate(236,268)"/>
</svg>
