<?xml version="1.0" encoding="UTF-8"?>
<svg version="1.1" xmlns="http://www.w3.org/2000/svg" width="512" height="512">
<path d="M0 0 C1.33790725 -0.00463536 2.6758132 -0.00966097 4.01371765 -0.01504517 C7.63396194 -0.0281051 11.25418774 -0.03460195 14.87445188 -0.03905582 C17.14285033 -0.04199792 19.41124386 -0.04610489 21.67963982 -0.05056 C28.79594318 -0.06422025 35.91223513 -0.07389317 43.02855068 -0.07776189 C51.20747665 -0.08223424 59.3862348 -0.09974994 67.56510979 -0.12876248 C73.91021894 -0.15047854 80.25528123 -0.16047149 86.60042709 -0.16180301 C90.37909065 -0.16284429 94.15759617 -0.16860561 97.93622017 -0.18662262 C101.49778576 -0.2032753 105.05907742 -0.20517695 108.62066841 -0.19648361 C110.52637882 -0.19536357 112.43208086 -0.20894869 114.33773804 -0.22323608 C133.61302481 -0.13150864 149.37718004 5.76027309 163.55639648 18.77441406 C174.61393067 30.75340944 178.915909 45.57058437 178.89996338 61.49563599 C178.9029345 62.42742924 178.90590562 63.35922249 178.90896678 64.31925189 C178.91762882 67.43729036 178.91915992 70.55529031 178.9206543 73.67333984 C178.92528427 75.91088442 178.93030917 78.1484282 178.93569946 80.38597107 C178.94880897 86.46267369 178.9552657 92.53936526 178.95971012 98.61607981 C178.96264343 102.41499257 178.96674875 106.21390232 178.97121429 110.01281357 C178.98332038 120.5438248 178.99370313 131.07483425 178.99708939 141.60585213 C178.99741874 142.61588239 178.99741874 142.61588239 178.99775474 143.6463173 C178.99797302 144.32122627 178.99819129 144.99613525 178.99841619 145.69149601 C178.99885964 147.05897911 178.9993062 148.42646221 178.99975586 149.79394531 C179.000088 150.81141039 179.000088 150.81141039 179.00042686 151.84943031 C179.00437159 162.8308345 179.02181722 173.81217221 179.04511538 184.79355074 C179.0688765 196.08488362 179.08103586 207.37618436 179.0824573 218.66754615 C179.08350386 225.00036893 179.08937995 231.33309788 179.10727692 237.66589737 C179.12379458 243.6265381 179.12589509 249.58701486 179.11713791 255.54767036 C179.11636949 257.72926715 179.12068431 259.91087288 179.13059616 262.09244728 C179.21717521 282.34418109 176.56236606 299.87114181 162.08300781 315.09887695 C147.85779825 329.25196276 130.61618275 332.31341328 111.3737793 332.30639648 C110.03247993 332.30939346 108.69118143 332.31279722 107.34988403 332.3165741 C103.72569602 332.3253643 100.10153166 332.32775012 96.47733402 332.32838988 C94.20710317 332.3291033 91.93687824 332.33124315 89.66664886 332.3338871 C81.7295036 332.34312459 73.79237507 332.34722406 65.85522461 332.34643555 C58.48441471 332.34583543 51.11367814 332.35637831 43.74288678 332.37217921 C37.39184391 332.3853035 31.04082486 332.39061739 24.68976855 332.38998014 C20.90675189 332.38972655 17.12380045 332.39249997 13.34079742 332.40315819 C9.77844631 332.41292172 6.21622169 332.41286255 2.65386581 332.40564156 C0.74302295 332.40411672 -1.16782012 332.41238472 -3.0786438 332.42108154 C-21.8436292 332.35358276 -36.70042624 327.7779809 -50.68188477 314.91503906 C-66.24709703 298.87575942 -67.69292292 279.97551521 -67.62866211 258.76831055 C-67.6327324 256.50855252 -67.63807684 254.24879649 -67.64459229 251.98904419 C-67.65821636 245.87965686 -67.6529877 239.77042228 -67.64345503 233.66103244 C-67.6358339 227.2533521 -67.64291076 220.84568442 -67.64761353 214.43800354 C-67.65341213 202.99268179 -67.64411876 191.54744429 -67.62883551 180.1021368 C-67.61543089 169.74326856 -67.61776546 159.38450119 -67.6315918 149.02563477 C-67.64767738 136.96862766 -67.65360614 124.91169662 -67.64475501 112.85467488 C-67.64008813 106.48230479 -67.63942664 100.11000405 -67.64936447 93.73763847 C-67.65805601 87.74653231 -67.65197215 81.75561593 -67.6346817 75.76453018 C-67.63072874 73.57122805 -67.63183041 71.37790983 -67.6384697 69.18461418 C-67.69698511 47.88366426 -67.69698511 47.88366426 -64.24047852 39.16113281 C-63.99266317 38.51455939 -63.74484783 37.86798597 -63.48952293 37.20181942 C-57.67760924 23.18114939 -47.35088237 11.52282776 -33.30493164 5.30419922 C-22.11562123 0.91154221 -11.8981554 0.01069822 0 0 Z M-26.11547852 39.78613281 C-26.81415039 40.39714844 -27.51282227 41.00816406 -28.23266602 41.63769531 C-33.37307749 48.09821246 -34.83399317 54.65806158 -34.75514221 62.75596619 C-34.76208774 63.67948319 -34.76903327 64.60300018 -34.77618927 65.55450255 C-34.79437965 68.62667383 -34.78421709 71.69806593 -34.77392578 74.77026367 C-34.78098825 76.98194453 -34.78973465 79.19362055 -34.80003357 81.4052887 C-34.8225 87.39705111 -34.81959416 93.38854903 -34.8107121 99.38033748 C-34.80559542 104.38780108 -34.8129003 109.39521527 -34.82018417 114.40267378 C-34.83814495 126.89287447 -34.83178142 139.3829481 -34.81401437 151.8731351 C-34.79932005 162.70381002 -34.81394598 173.53420745 -34.84278453 184.36484664 C-34.87222435 195.50486078 -34.88263006 206.64477483 -34.87360233 217.78483301 C-34.8686782 224.03151662 -34.87086134 230.27798458 -34.89138985 236.52464104 C-34.90977231 242.39926487 -34.90375622 248.27337387 -34.87919044 254.1479702 C-34.87419089 256.29976394 -34.87764997 258.45159709 -34.8903389 260.60335922 C-35.24774608 277.20291939 -35.24774608 277.20291939 -27.30935001 291.27348232 C-20.3147023 298.29227651 -12.2012023 299.49662737 -2.5899353 299.56771851 C-1.36473175 299.56164581 -0.1395282 299.55557312 1.12280273 299.54931641 C2.43614594 299.55457336 3.74948914 299.55983032 5.10263062 299.56524658 C8.68118601 299.57883978 12.25947985 299.57365496 15.8380394 299.56410933 C19.59743665 299.55647097 23.35681273 299.56356987 27.11621094 299.56826782 C33.42736803 299.57371329 39.73841952 299.56656565 46.04956055 299.55224609 C53.32791641 299.53592186 60.60602009 299.54121123 67.88436985 299.55772531 C74.15302711 299.57137478 80.42160881 299.57324298 86.69027615 299.5654093 C90.42569037 299.56075174 94.16098637 299.56005475 97.89639282 299.57001877 C102.06315855 299.58035867 106.22949505 299.56599476 110.39624023 299.54931641 C111.62144379 299.5553891 112.84664734 299.56146179 114.10897827 299.56771851 C122.88413567 299.50281178 130.78622831 298.62905012 137.57202148 292.59863281 C138.63356445 291.69951172 138.63356445 291.69951172 139.71655273 290.78222656 C144.89475946 284.13867644 146.35538054 276.75603851 146.26745605 268.51524353 C146.27369602 267.59833365 146.27993598 266.68142376 146.28636503 265.73672873 C146.30220088 262.69295063 146.28972779 259.64998387 146.27709961 256.60620117 C146.28252486 254.41245561 146.28964978 252.2187137 146.29833984 250.02497864 C146.31652687 244.08704794 146.3095249 238.14939621 146.2968235 232.21146083 C146.28667323 225.98834293 146.29609469 219.76524839 146.30236816 213.54212952 C146.3101033 202.42547443 146.29769979 191.30892877 146.27733082 180.19229532 C146.25945724 170.12609976 146.26257005 160.06008873 146.28100586 149.99389648 C146.30244203 138.28410353 146.31036433 126.57441815 146.2985568 114.86460787 C146.29232911 108.67333934 146.29146657 102.48219774 146.30470276 96.29093742 C146.3162778 90.47052705 146.30820488 84.65046439 146.28512573 78.83009148 C146.27984779 76.6972308 146.2813367 74.56434074 146.29017639 72.43149185 C146.30115129 69.51394891 146.28734454 66.59751147 146.26745605 63.68003845 C146.27637894 62.8415028 146.28530183 62.00296716 146.29449511 61.13902134 C146.18476046 52.80678479 143.09509778 45.80656543 137.46655273 39.66503906 C131.59338696 34.49073969 124.79107776 33.04414549 117.13838196 33.02069092 C115.45850441 33.0121257 115.45850441 33.0121257 113.74468994 33.00338745 C112.52537781 33.00226959 111.30606567 33.00115173 110.04980469 33 C108.75815903 32.9950351 107.46651337 32.99007019 106.13572693 32.98495483 C102.5982748 32.9718677 99.06084162 32.96539286 95.52336907 32.96094418 C93.30962068 32.95800691 91.09587739 32.95390083 88.88213158 32.94944 C81.94523211 32.93577349 75.0083444 32.92610324 68.07143241 32.92223811 C60.08374641 32.91776219 52.09623193 32.90023248 44.10859805 32.87123752 C37.92155211 32.84956416 31.73455422 32.83953079 25.54747075 32.83819699 C21.85832975 32.83715281 18.16935018 32.8313283 14.4802494 32.81337738 C10.35879879 32.79371219 6.23770343 32.79820809 2.11621094 32.8046875 C0.90701996 32.79547272 -0.30217102 32.78625793 -1.54800415 32.77676392 C-10.4123224 32.82029653 -19.30072305 33.53713063 -26.11547852 39.78613281 Z " fill="#000000" transform="translate(200.240478515625,89.8388671875)"/>
<path d="M0 0 C4.66621889 2.65048095 6.62381191 5.03574536 8.6875 10.08203125 C9.11057457 13.14498287 9.09703407 16.17202019 9.07518005 19.26036072 C9.08056559 20.17526403 9.08595113 21.09016735 9.09149987 22.03279501 C9.1057889 25.09353401 9.09867331 28.1538411 9.09155273 31.21459961 C9.09725579 33.41099902 9.10421979 35.60739547 9.11235046 37.80378723 C9.13030382 43.76656438 9.12910938 49.72919454 9.12340808 55.69199061 C9.12031946 60.66975515 9.12640503 65.64749132 9.13244683 70.62525183 C9.14730088 83.03933025 9.14367251 95.45334328 9.13158352 107.86741854 C9.12165132 118.6420738 9.13459227 129.41655734 9.15851771 140.19118612 C9.18291545 151.26215515 9.19211532 162.33305499 9.18586498 173.40405184 C9.18249246 179.6165637 9.18493027 185.82893367 9.20211601 192.0414257 C9.21757047 197.88310235 9.21364594 203.72445082 9.19481087 209.56611443 C9.19112091 211.70949236 9.19424524 213.85289453 9.20469666 215.99625015 C9.21788003 218.92345201 9.20638213 221.84956319 9.18870544 224.77671814 C9.20311295 226.04735285 9.20311295 226.04735285 9.21781152 227.34365696 C9.14687515 233.05741289 7.99483731 236.38882194 4.6875 241.08203125 C-0.02860912 244.76059637 -3.83660957 245.79542808 -9.8125 245.53125 C-13.97044004 244.78412015 -17.31489347 243.05886915 -20.3125 240.08203125 C-23.53282381 234.92755374 -23.74179648 230.78480341 -23.70018005 224.90370178 C-23.70556559 223.98879847 -23.71095113 223.07389515 -23.71649987 222.13126749 C-23.7307889 219.07052849 -23.72367331 216.0102214 -23.71655273 212.94946289 C-23.72225579 210.75306348 -23.72921979 208.55666703 -23.73735046 206.36027527 C-23.75530382 200.39749812 -23.75410938 194.43486796 -23.74840808 188.47207189 C-23.74531946 183.49430735 -23.75140503 178.51657118 -23.75744683 173.53881067 C-23.77230088 161.12473225 -23.76867251 148.71071922 -23.75658352 136.29664396 C-23.74665132 125.5219887 -23.75959227 114.74750516 -23.78351771 103.97287638 C-23.80791545 92.90190735 -23.81711532 81.83100751 -23.81086498 70.76001066 C-23.80749246 64.5474988 -23.80993027 58.33512883 -23.82711601 52.1226368 C-23.84257047 46.28096015 -23.83864594 40.43961168 -23.81981087 34.59794807 C-23.81612091 32.45457014 -23.81924524 30.31116797 -23.82969666 28.16781235 C-23.84288003 25.24061049 -23.83138213 22.31449931 -23.81370544 19.38734436 C-23.82331045 18.54025455 -23.83291546 17.69316474 -23.84281152 16.82040554 C-23.77187515 11.10664961 -22.61983731 7.77524056 -19.3125 3.08203125 C-13.4846845 -1.46366484 -7.04757738 -2.79760251 0 0 Z " fill="#000000" transform="translate(455.3125,133.91796875)"/>
<path d="M0 0 C4.66621889 2.65048095 6.62381191 5.03574536 8.6875 10.08203125 C9.11057457 13.14498287 9.09703407 16.17202019 9.07518005 19.26036072 C9.08056559 20.17526403 9.08595113 21.09016735 9.09149987 22.03279501 C9.1057889 25.09353401 9.09867331 28.1538411 9.09155273 31.21459961 C9.09725579 33.41099902 9.10421979 35.60739547 9.11235046 37.80378723 C9.13030382 43.76656438 9.12910938 49.72919454 9.12340808 55.69199061 C9.12031946 60.66975515 9.12640503 65.64749132 9.13244683 70.62525183 C9.14730088 83.03933025 9.14367251 95.45334328 9.13158352 107.86741854 C9.12165132 118.6420738 9.13459227 129.41655734 9.15851771 140.19118612 C9.18291545 151.26215515 9.19211532 162.33305499 9.18586498 173.40405184 C9.18249246 179.6165637 9.18493027 185.82893367 9.20211601 192.0414257 C9.21757047 197.88310235 9.21364594 203.72445082 9.19481087 209.56611443 C9.19112091 211.70949236 9.19424524 213.85289453 9.20469666 215.99625015 C9.21788003 218.92345201 9.20638213 221.84956319 9.18870544 224.77671814 C9.20311295 226.04735285 9.20311295 226.04735285 9.21781152 227.34365696 C9.14687515 233.05741289 7.99483731 236.38882194 4.6875 241.08203125 C-0.02860912 244.76059637 -3.83660957 245.79542808 -9.8125 245.53125 C-13.97044004 244.78412015 -17.31489347 243.05886915 -20.3125 240.08203125 C-23.53282381 234.92755374 -23.74179648 230.78480341 -23.70018005 224.90370178 C-23.70556559 223.98879847 -23.71095113 223.07389515 -23.71649987 222.13126749 C-23.7307889 219.07052849 -23.72367331 216.0102214 -23.71655273 212.94946289 C-23.72225579 210.75306348 -23.72921979 208.55666703 -23.73735046 206.36027527 C-23.75530382 200.39749812 -23.75410938 194.43486796 -23.74840808 188.47207189 C-23.74531946 183.49430735 -23.75140503 178.51657118 -23.75744683 173.53881067 C-23.77230088 161.12473225 -23.76867251 148.71071922 -23.75658352 136.29664396 C-23.74665132 125.5219887 -23.75959227 114.74750516 -23.78351771 103.97287638 C-23.80791545 92.90190735 -23.81711532 81.83100751 -23.81086498 70.76001066 C-23.80749246 64.5474988 -23.80993027 58.33512883 -23.82711601 52.1226368 C-23.84257047 46.28096015 -23.83864594 40.43961168 -23.81981087 34.59794807 C-23.81612091 32.45457014 -23.81924524 30.31116797 -23.82969666 28.16781235 C-23.84288003 25.24061049 -23.83138213 22.31449931 -23.81370544 19.38734436 C-23.82331045 18.54025455 -23.83291546 17.69316474 -23.84281152 16.82040554 C-23.77187515 11.10664961 -22.61983731 7.77524056 -19.3125 3.08203125 C-13.4846845 -1.46366484 -7.04757738 -2.79760251 0 0 Z " fill="#000000" transform="translate(71.3125,133.91796875)"/>
</svg>
