<?xml version="1.0" encoding="UTF-8"?>
<svg version="1.1" xmlns="http://www.w3.org/2000/svg" width="512" height="512">
<path d="M0 0 C0.94742091 -0.00367669 1.89484182 -0.00735338 2.87097245 -0.01114148 C6.03632709 -0.02212824 9.20164885 -0.02601371 12.36701965 -0.02983093 C14.64099226 -0.03609962 16.91496385 -0.04274677 19.18893433 -0.04974365 C26.65169059 -0.07074721 34.11444697 -0.08114609 41.57722473 -0.09111023 C44.15322187 -0.09515988 46.72921891 -0.09927687 49.30521584 -0.10346031 C60.02926364 -0.12032688 70.75330777 -0.1349587 81.47736645 -0.14220905 C84.2563394 -0.14411858 87.03531235 -0.14603896 89.81428528 -0.147995 C90.50488442 -0.14847874 91.19548355 -0.14896248 91.90700994 -0.14946087 C103.06726293 -0.15774202 114.22740808 -0.18304768 125.38761409 -0.21557567 C136.87790538 -0.24878909 148.36812591 -0.2663391 159.85846692 -0.26985329 C166.2966386 -0.27219356 172.73463985 -0.28101951 179.17276573 -0.30631447 C185.24099882 -0.32977056 191.30895139 -0.3337585 197.37721825 -0.32355309 C199.58932433 -0.32306177 201.80144505 -0.32926086 204.01350784 -0.34310913 C236.20517341 -0.53315779 266.94803165 7.72977085 292.40925598 28.14717102 C293.29484192 28.82006165 294.18042786 29.49295227 295.09284973 30.18623352 C322.71752813 51.73740106 341.07440805 85.47872965 345.40925598 120.14717102 C346.30458118 128.61977572 346.56234349 137.02528862 346.57038879 145.54048157 C346.5753537 146.82190536 346.5803186 148.10332916 346.58543396 149.42358398 C346.59840948 152.90324227 346.60497313 156.3828814 346.60944462 159.86256003 C346.61239883 162.04708652 346.61650767 164.23160804 346.62094879 166.41613197 C346.63458292 173.28200841 346.64427015 180.14787316 346.64815068 187.01376218 C346.65262533 194.88244795 346.67016292 202.7509595 346.69915128 210.61959237 C346.72090575 216.74149658 346.73086219 222.86335226 346.7321918 228.98529464 C346.73322979 232.62369496 346.73891928 236.26193065 346.75701141 239.90028954 C346.90924942 272.41632959 342.87090638 297.6132944 319.72566223 321.97138977 C308.42046624 333.20635503 294.69907039 340.0134427 279.40925598 344.14717102 C278.40934631 344.42319153 278.40934631 344.42319153 277.38923645 344.70478821 C254.53869808 350.47009157 230.0148791 345.15077433 209.97175598 333.58467102 C203.19011729 329.29125948 197.55182382 324.04560355 191.80183411 318.47920227 C190.03343181 316.78768703 188.20240006 315.17960477 186.34675598 313.58467102 C183.04340134 310.7254649 179.81337635 307.79066318 176.59675598 304.83467102 C176.09087952 304.37004456 175.58500305 303.90541809 175.063797 303.42671204 C172.98448262 301.51603522 170.90591545 299.60455189 168.82868958 297.69160461 C167.31582451 296.29965539 165.8003113 294.91064379 164.28425598 293.52217102 C162.95007629 292.29627258 162.95007629 292.29627258 161.58894348 291.04560852 C159.55911956 289.11784989 159.55911956 289.11784989 157.40925598 288.14717102 C157.40925598 287.48717102 157.40925598 286.82717102 157.40925598 286.14717102 C156.82917786 285.88291321 156.24909973 285.6186554 155.65144348 285.34638977 C153.3174683 284.098079 151.54817994 282.6718982 149.53425598 280.95967102 C135.57881932 269.96517404 118.08918799 264.80954459 100.40925598 266.14717102 C75.93898439 269.32761115 60.5829605 283.08013363 43.16902161 299.49189758 C40.65977221 301.8521516 38.13680878 304.19501282 35.59675598 306.52217102 C34.82718567 307.2311554 34.05761536 307.94013977 33.26472473 308.67060852 C31.40925598 310.14717102 31.40925598 310.14717102 29.40925598 310.14717102 C29.40925598 310.80717102 29.40925598 311.46717102 29.40925598 312.14717102 C28.01081848 313.55732727 28.01081848 313.55732727 26.03425598 315.20967102 C22.80229426 317.94178629 19.6863687 320.75529351 16.59675598 323.64717102 C-3.14494325 341.34869465 -26.7467645 347.72371787 -52.75675964 346.37910461 C-73.40230459 344.68947094 -93.87437958 334.78699276 -107.96965027 319.58076477 C-124.44978956 299.97748572 -131.71437655 278.92903474 -131.76774597 253.57466125 C-131.77402068 252.20047335 -131.78066835 250.82628711 -131.78765869 249.45210266 C-131.80860518 244.95333515 -131.81906144 240.45456772 -131.82902527 235.95576477 C-131.8330782 234.39639329 -131.83719528 232.83702198 -131.84137535 231.27765083 C-131.86041691 223.9381488 -131.87464261 216.59865667 -131.88298732 209.25913471 C-131.89271581 200.84535985 -131.91892381 192.43185115 -131.95948821 184.01816982 C-131.98990328 177.48015731 -132.00448045 170.94221989 -132.00776833 164.40413815 C-132.0100927 160.51673565 -132.01870212 156.62961763 -132.04422951 152.7422924 C-132.31081174 109.91694783 -122.58413818 74.36696423 -93.59074402 42.14717102 C-92.97199402 41.44463196 -92.35324402 40.7420929 -91.71574402 40.01826477 C-68.74768631 15.4608995 -33.56114368 -0.00705964 0 0 Z M-25.09074402 33.77217102 C-25.87916687 34.03159485 -26.66758972 34.29101868 -27.47990417 34.55830383 C-41.14154212 39.22833954 -52.56262825 45.89438631 -63.59074402 55.14717102 C-64.44281433 55.84713196 -65.29488464 56.5470929 -66.17277527 57.26826477 C-68.97959065 59.60439011 -68.97959065 59.60439011 -71.59074402 62.14717102 C-71.59074402 62.80717102 -71.59074402 63.46717102 -71.59074402 64.14717102 C-72.25074402 64.14717102 -72.91074402 64.14717102 -73.59074402 64.14717102 C-92.12324753 85.8444559 -102.11885137 110.92118985 -101.97892761 139.58711243 C-101.98300805 140.95738133 -101.98835806 142.32764693 -101.99485779 143.69790649 C-102.00836008 147.36934607 -102.00330546 151.04052855 -101.99372053 154.71197176 C-101.98603708 158.58290497 -101.99319303 162.45381858 -101.99787903 166.32475281 C-102.00331032 172.81865832 -101.99621314 179.31246089 -101.9818573 185.80635071 C-101.96552204 193.28129075 -101.97083623 200.75598533 -101.98733652 208.23091948 C-102.00101031 214.68744379 -102.00284284 221.14389481 -101.99502051 227.60042894 C-101.99037795 231.43983818 -101.98962398 235.27913254 -101.99962997 239.11853409 C-102.00838443 242.72866076 -102.00212574 246.33847495 -101.9849472 249.94856834 C-101.97917889 251.88180504 -101.9879239 253.8150686 -101.99732971 255.74829102 C-101.8690742 273.67772417 -96.31812428 288.66857881 -83.60636902 301.41670227 C-71.89793917 312.42308669 -56.30614015 317.61883923 -40.37980652 317.35420227 C-24.51474329 316.17654352 -11.7641698 309.12353462 -0.59074402 298.14717102 C0.67131683 297.032988 1.94185197 295.92831041 3.22175598 294.83467102 C7.38805953 291.20704106 11.43197695 287.45145854 15.48396301 283.69746399 C19.62841119 279.86010083 23.80593031 276.06244553 28.01472473 272.29560852 C29.64912063 270.8291848 31.27644809 269.35485421 32.89753723 267.87373352 C56.11532815 246.71412935 80.90211578 235.14283493 112.67585754 236.22431946 C140.24417281 237.91721914 162.2219373 251.11736609 181.88972473 269.72041321 C184.05292017 271.75153694 186.25991357 273.73177348 188.47175598 275.70967102 C192.14032974 278.99771201 195.78146342 282.31426954 199.40925598 285.64717102 C201.40879424 287.48100872 203.40903526 289.3140775 205.40925598 291.14717102 C206.27808411 291.94510071 207.14691223 292.7430304 208.04206848 293.56513977 C210.47767965 295.78314931 212.93484742 297.97256963 215.40925598 300.14717102 C216.59068176 301.19904602 216.59068176 301.19904602 217.79597473 302.27217102 C229.62386404 312.32873391 244.6393489 317.98450998 260.24909973 317.49092102 C278.54703545 315.50053988 293.63592059 306.83691547 305.22175598 292.70967102 C314.27140013 280.40215499 316.87309011 267.56328553 316.79743958 252.49433899 C316.80269653 251.18526077 316.80795349 249.87618256 316.81336975 248.5274353 C316.82691907 244.97117885 316.82179449 241.41518673 316.81223249 237.8589263 C316.80456137 234.1077622 316.81170284 230.35661861 316.81639099 226.60545349 C316.82183112 220.30291243 316.8147072 214.00047721 316.80036926 207.69795227 C316.7840887 200.45890673 316.78930475 193.22011538 316.80584848 185.98107612 C316.81956455 179.72410723 316.82133286 173.46721387 316.81353247 167.21023476 C316.8089055 163.49190445 316.80809014 159.77369257 316.81814194 156.05537033 C316.90360579 119.37631326 310.74489612 87.38949777 284.09675598 60.33467102 C271.47604507 47.90405492 256.83357095 39.3656536 240.03425598 33.83467102 C239.31673157 33.59208557 238.59920715 33.34950012 237.85993958 33.0995636 C223.4037984 28.6103843 208.17232688 28.85527777 193.20222473 28.88838196 C191.11747618 28.88566557 189.03272859 28.88210103 186.94798279 28.87776184 C181.33230826 28.86871261 175.71670794 28.87215103 170.10103226 28.87852001 C164.19620325 28.88361894 158.29138018 28.87887781 152.3865509 28.87574768 C142.47451142 28.87211931 132.56250185 28.8768774 122.65046692 28.88642883 C111.22606224 28.89731118 99.80172897 28.8937848 88.37732601 28.88277602 C78.53054415 28.87367087 68.68378366 28.87243361 58.83699894 28.87765336 C52.97259413 28.88075536 47.10822278 28.88123146 41.24382019 28.87458038 C35.72791105 28.8687604 30.21209309 28.87288811 24.6961937 28.8843689 C22.68398057 28.88699077 20.67175963 28.88629327 18.65954971 28.88184357 C3.90047376 28.85224015 -10.95029535 29.01481689 -25.09074402 33.77217102 Z " fill="#000000" transform="translate(148.5907440185547,82.85282897949219)"/>
<path d="M0 0 C4.41395254 2.24861733 7.22558132 4.92338508 10 9 C10.45410156 11.86254883 10.45410156 11.86254883 10.390625 14.95703125 C10.37773437 16.06884766 10.36484375 17.18066406 10.3515625 18.32617188 C10.31804687 19.47666016 10.28453125 20.62714844 10.25 21.8125 C10.23195312 22.98232422 10.21390625 24.15214844 10.1953125 25.35742188 C10.1482644 28.2391178 10.08253709 31.11913797 10 34 C10.69561035 33.98428955 11.3912207 33.9685791 12.10791016 33.95239258 C15.28018971 33.88977137 18.45233885 33.85092323 21.625 33.8125 C23.26662109 33.77479492 23.26662109 33.77479492 24.94140625 33.73632812 C35.26365113 33.64248954 35.26365113 33.64248954 40 37 C43.47081537 41.56686232 44.66441532 45.11565025 44.390625 50.85546875 C43.59790852 55.20748224 41.17320177 57.96900451 37.9375 60.8125 C34.46915806 62.93825796 31.64658906 63.11959441 27.67578125 63.09765625 C26.64775391 63.09443359 25.61972656 63.09121094 24.56054688 63.08789062 C23.48869141 63.07951172 22.41683594 63.07113281 21.3125 63.0625 C19.68731445 63.05573242 19.68731445 63.05573242 18.02929688 63.04882812 C15.35280915 63.03703743 12.67643223 63.02058063 10 63 C10.02094727 63.69561035 10.04189453 64.3912207 10.06347656 65.10791016 C10.1469698 68.28012458 10.19876529 71.45210731 10.25 74.625 C10.28351563 75.71941406 10.31703125 76.81382812 10.3515625 77.94140625 C10.44573991 85.71104275 9.59729883 89.13623459 4.3125 94.8125 C-0.7035691 97.38831927 -5.47238364 97.45077204 -10.8125 95.875 C-14.75003778 93.55880131 -16.96782404 91.06435193 -19 87 C-19.08471364 85.18658158 -19.10721083 83.37005839 -19.09765625 81.5546875 C-19.09443359 80.47832031 -19.09121094 79.40195313 -19.08789062 78.29296875 C-19.07532227 76.60107422 -19.07532227 76.60107422 -19.0625 74.875 C-19.05798828 73.73933594 -19.05347656 72.60367188 -19.04882812 71.43359375 C-19.03701615 68.62234362 -19.02054507 65.8111977 -19 63 C-19.66531738 63.01571045 -20.33063477 63.0314209 -21.01611328 63.04760742 C-24.0523212 63.11025597 -27.08839272 63.14908509 -30.125 63.1875 C-31.69507813 63.22520508 -31.69507813 63.22520508 -33.296875 63.26367188 C-38.94164903 63.3172615 -43.17598973 63.30228996 -48 60 C-52.09038297 55.57796435 -53.37770862 52.13624419 -53.27734375 46.05859375 C-52.66474901 41.51158775 -49.89313635 38.81087379 -46.625 35.84375 C-41.83838511 32.74833737 -36.09997605 33.58233289 -30.625 33.75 C-29.50738281 33.76804688 -28.38976562 33.78609375 -27.23828125 33.8046875 C-24.4912997 33.85164445 -21.74609953 33.91730532 -19 34 C-19.0314209 33.2793335 -19.0628418 32.55866699 -19.09521484 31.81616211 C-19.22060046 28.52359922 -19.29818176 25.23153936 -19.375 21.9375 C-19.42527344 20.80376953 -19.47554687 19.67003906 -19.52734375 18.50195312 C-19.69314504 9.02364629 -19.69314504 9.02364629 -16.2265625 4.81640625 C-11.47355974 0.03848307 -6.53772441 -0.92096639 0 0 Z " fill="#000000" transform="translate(159,174)"/>
<path d="M0 0 C1.11580444 -0.005476 1.11580444 -0.005476 2.25415039 -0.01106262 C4.69758381 -0.01912712 7.14034551 -0.00559395 9.58374023 0.0090332 C11.28954569 0.00955225 12.99535175 0.00903282 14.70115662 0.00752258 C18.26944961 0.00761212 21.8375158 0.01800445 25.40576172 0.03613281 C29.97440108 0.05883653 34.54270983 0.05935894 39.11139011 0.05261517 C42.63131131 0.04927057 46.15115743 0.05591424 49.67106438 0.0657444 C51.35553532 0.06958692 53.04001463 0.07074855 54.72448921 0.06915855 C57.07950833 0.06878681 59.43410673 0.08143777 61.7890625 0.09765625 C62.48166672 0.09517883 63.17427094 0.09270142 63.88786316 0.09014893 C67.80184906 0.13306825 70.80058712 0.66251987 74.32983398 2.37231445 C74.32983398 3.03231445 74.32983398 3.69231445 74.32983398 4.37231445 C74.98983398 4.37231445 75.64983398 4.37231445 76.32983398 4.37231445 C79.20466963 9.1637072 80.12746051 12.90911907 79.32983398 18.37231445 C77.61254811 23.07225475 75.46376733 25.58190945 71.32983398 28.37231445 C67.78350067 29.55442556 64.94396531 29.51389568 61.19970703 29.53344727 C60.11622986 29.54089462 60.11622986 29.54089462 59.01086426 29.54849243 C56.62108405 29.56309778 54.23137024 29.56991365 51.84155273 29.57543945 C50.17869566 29.58119265 48.51583861 29.58695036 46.85298157 29.5927124 C43.36520072 29.60321804 39.87744288 29.60906343 36.38964844 29.61254883 C31.92747943 29.61802986 27.46561612 29.64205123 23.0035429 29.67052078 C19.56766379 29.68917519 16.13185786 29.69435427 12.69593239 29.6958847 C11.05134219 29.6989059 9.40675312 29.70691644 7.76221275 29.72006989 C5.45728913 29.7371879 3.15310651 29.73523635 0.84814453 29.72875977 C-0.46185013 29.7324054 -1.77184479 29.73605103 -3.12153625 29.73980713 C-8.28083428 29.2055152 -11.51571952 27.65156597 -14.98266602 23.80981445 C-18.09210218 19.31840666 -18.2951206 15.75044479 -17.67016602 10.37231445 C-16.36671525 6.47685874 -14.53615452 3.91481786 -11.00111389 1.70027161 C-7.22516938 0.19490656 -3.99696147 -0.04424068 0 0 Z " fill="#000000" transform="translate(326.670166015625,207.627685546875)"/>
</svg>
